<?xml version="1.0" encoding="UTF-8"?>
<!DOCTYPE svg PUBLIC "-//W3C//DTD SVG 1.1//EN" "http://www.w3.org/Graphics/SVG/1.1/DTD/svg11.dtd">
<!-- Creator: CorelDRAW X8 -->
<svg xmlns="http://www.w3.org/2000/svg" xml:space="preserve" width="10.417in" height="6.944in" version="1.1" style="shape-rendering:geometricPrecision; text-rendering:geometricPrecision; image-rendering:optimizeQuality; fill-rule:evenodd; clip-rule:evenodd"
viewBox="0 0 10417 6944"
 xmlns:xlink="http://www.w3.org/1999/xlink">
 <defs>
  <style type="text/css">
   <![CDATA[
    .fil1 {fill:#FEFEFE;fill-rule:nonzero}
    .fil9 {fill:#FBDADB;fill-rule:nonzero}
    .fil5 {fill:#FBD2D3;fill-rule:nonzero}
    .fil8 {fill:#F9BCBE;fill-rule:nonzero}
    .fil7 {fill:#F79456;fill-rule:nonzero}
    .fil2 {fill:#F0595A;fill-rule:nonzero}
    .fil0 {fill:#7B82BE;fill-rule:nonzero}
    .fil3 {fill:#3FC0C7;fill-rule:nonzero}
    .fil11 {fill:#4C99CC;fill-rule:nonzero}
    .fil6 {fill:#3F8BB5;fill-rule:nonzero}
    .fil4 {fill:#1976D2;fill-rule:nonzero}
    .fil10 {fill:#1976D2;fill-rule:nonzero}
   ]]>
  </style>
 </defs>
 <g id="Layer_x0020_1">
  <metadata id="CorelCorpID_0Corel-Layer"/>
  <path class="fil0" d="M8317 2564c0,196 -159,356 -355,356 -197,0 -356,-160 -356,-356 0,-196 159,-355 356,-355 196,0 355,159 355,355z"/>
  <path class="fil1" d="M7930 2698c-8,0 -16,-3 -22,-8l-129 -104c-16,-12 -18,-34 -6,-49 12,-15 34,-18 50,-6l108 87 205 -146c16,-11 38,-8 49,8 11,16 8,38 -8,49l-227 162c-6,4 -13,7 -20,7z"/>
  <path class="fil2" d="M7734 1950c0,182 -148,330 -330,330 -183,0 -330,-148 -330,-330 0,-183 147,-331 330,-331 182,0 330,148 330,331z"/>
  <polygon class="fil1" points="7404,1717 7474,1859 7632,1882 7518,1993 7545,2150 7404,2076 7263,2150 7290,1993 7176,1882 7334,1859 "/>
  <path class="fil0" d="M7031 2427c0,182 -147,330 -330,330 -182,0 -330,-148 -330,-330 0,-183 148,-331 330,-331 183,0 330,148 330,331z"/>
  <path class="fil1" d="M6846 2307c-49,-27 -114,7 -145,53 -30,-46 -98,-80 -148,-53 -52,28 -64,83 -36,135 28,52 184,180 184,178 1,2 157,-126 185,-178 28,-52 13,-107 -40,-135z"/>
  <path class="fil3" d="M7494 2659c0,111 -91,201 -202,201 -111,0 -201,-90 -201,-201 0,-111 90,-202 201,-202 111,0 202,91 202,202z"/>
  <polygon class="fil1" points="7269,2770 7315,2770 7315,2547 7269,2547 "/>
  <polygon class="fil1" points="7181,2682 7404,2682 7404,2636 7181,2636 "/>
  <path class="fil3" d="M4812 3114c66,90 47,216 -42,282 -90,66 -216,47 -282,-42 -66,-89 -47,-215 42,-282 89,-66 215,-47 282,42z"/>
  <polygon class="fil1" points="4735,3310 4698,3337 4565,3158 4602,3131 "/>
  <polygon class="fil1" points="4574,3319 4547,3282 4726,3149 4753,3186 "/>
  <path class="fil4" d="M4897 5456l-2515 0c-92,0 -166,-74 -166,-166l0 -1574c0,-92 74,-166 166,-166l2515 0c92,0 166,74 166,166l0 1574c0,92 -74,166 -166,166z"/>
  <path class="fil5" d="M4748 5337l-2266 0c-86,0 -155,-65 -155,-145l0 -1378c0,-80 69,-146 155,-146l2266 0c85,0 155,66 155,146l0 1378c0,80 -70,145 -155,145z"/>
  <path class="fil6" d="M4985 4348c18,0 33,15 33,33l0 244c0,18 -15,33 -33,33 -19,0 -34,-15 -34,-33l0 -244c0,-18 15,-33 34,-33z"/>
  <path class="fil3" d="M4104 4781l-978 0c-57,0 -104,-47 -104,-104l0 -369c0,-58 47,-104 104,-104l978 0c57,0 104,46 104,104l0 369c0,57 -47,104 -104,104z"/>
  <path class="fil7" d="M1963 5491c-50,-105 -111,-710 -28,-788 83,-78 194,-106 222,-111 28,-6 -28,-372 89,-394 65,-13 139,11 133,222 -7,278 -44,1060 -44,1060l-372 11z"/>
  <path class="fil5" d="M2166 4733l-5 -146c10,-26 1,-142 11,-242l11 387 -17 1z"/>
  <path class="fil5" d="M2332 4298c0,32 -26,58 -58,58 -32,0 -58,-26 -58,-58 0,-32 26,-59 58,-59 32,0 58,27 58,59z"/>
  <path class="fil8" d="M1955 5474l380 0 0 592c0,21 -18,38 -39,38l-302 0c-22,0 -39,-17 -39,-38l0 -592z"/>
  <path class="fil8" d="M4401 5474l402 145 69 447c0,21 -17,38 -38,38l-395 0c-21,0 -38,-17 -38,-38l0 -592z"/>
  <path class="fil7" d="M3986 5300c-33,-64 15,-121 105,-260 22,-34 4,-107 -40,-200 -94,-196 -157,-338 -45,-405 112,-67 134,120 187,262 54,143 67,232 103,232 12,0 23,-17 89,-21 58,-3 52,23 90,25 39,2 74,-22 123,-14 17,3 42,22 70,31 25,8 82,-13 119,23 97,91 16,646 16,646l-397 143c0,0 -179,-111 -250,-163 -45,-33 -116,-195 -170,-299z"/>
  <path class="fil5" d="M4190 5371l-93 -345c6,-19 4,-44 -4,-75l3 -1 111 417 -17 4z"/>
  <path class="fil5" d="M4112 4548c0,32 -26,58 -58,58 -32,0 -59,-26 -59,-58 0,-33 27,-59 59,-59 32,0 58,26 58,59z"/>
  <path class="fil5" d="M1944 5419l391 0 0 178 -391 0c-27,0 -48,-22 -48,-48l0 -83c0,-26 21,-47 48,-47z"/>
  <path class="fil5" d="M4837 5655l29 78c8,25 -4,52 -29,61l-418 150c-24,9 -51,-4 -60,-29l-28 -78c-9,-24 4,-51 28,-60l418 -150c25,-9 52,4 60,28z"/>
  <path class="fil1" d="M3407 4548l28 0c7,0 12,-2 15,-5 3,-3 5,-7 5,-12 0,-4 -2,-8 -5,-11 -3,-4 -9,-6 -17,-6l-26 0 0 34zm0 -74l26 0c7,0 12,-1 15,-5l4 -11c0,-10 -7,-15 -20,-15l-25 0 0 31zm-53 116l0 -188 95 0c20,0 34,5 43,15 9,10 14,22 14,35 0,9 -3,17 -8,25 -5,7 -13,13 -24,16 25,5 37,20 37,43 0,14 -4,27 -13,38 -9,11 -27,16 -55,16l-89 0z"/>
  <path class="fil1" d="M3701 4402l0 125c0,23 -7,40 -21,50 -14,11 -32,16 -55,16 -23,0 -42,-5 -57,-15 -14,-10 -21,-26 -21,-48l0 -128 58 0 0 121c0,9 2,15 6,20 4,4 10,6 18,6 7,0 13,-2 17,-5 5,-3 7,-6 8,-10 1,-4 2,-11 2,-22l0 -110 45 0z"/>
  <polygon class="fil1" points="3902,4402 3843,4511 3843,4590 3787,4590 3787,4511 3724,4402 3787,4402 3820,4464 3851,4402 "/>
  <path class="fil9" d="M4489 4709c-39,0 -71,-31 -71,-71l0 -812c0,-39 32,-71 71,-71 40,0 72,32 72,71l0 812c0,40 -32,71 -72,71z"/>
  <path class="fil9" d="M4710 4190c-39,0 -71,-32 -71,-72l0 -292c0,-39 32,-71 71,-71 40,0 71,32 71,71l0 292c0,40 -31,72 -71,72z"/>
  <path class="fil10" d="M7050 1567c0,239 -194,432 -433,432 -239,0 -432,-193 -432,-432 0,-239 193,-433 432,-433 239,0 433,194 433,433z"/>
  <path class="fil1" d="M6422 1689l401 0 0 -231 -401 0 0 231zm436 70l-471 0c-19,0 -35,-15 -35,-35l0 -301c0,-19 16,-35 35,-35l471 0c20,0 35,16 35,35l0 301c0,20 -15,35 -35,35z"/>
  <path class="fil1" d="M6696 1566c0,37 -30,67 -67,67 -37,0 -67,-30 -67,-67 0,-37 30,-67 67,-67 37,0 67,30 67,67z"/>
  <path class="fil1" d="M6750 1449c-25,0 -44,-20 -44,-44l0 -36c0,-24 19,-44 44,-44 24,0 44,20 44,44l0 36c0,24 -20,44 -44,44z"/>
  <path class="fil0" d="M4522 1766c0,221 -180,401 -401,401 -221,0 -400,-180 -400,-401 0,-221 179,-400 400,-400 221,0 401,179 401,400z"/>
  <path class="fil1" d="M3955 1951c-9,0 -18,-4 -25,-11 -14,-14 -13,-36 1,-50l327 -318c14,-14 36,-14 49,0 14,14 14,36 0,50l-327 319c-7,7 -16,10 -25,10z"/>
  <path class="fil1" d="M4080 1633c0,42 -34,77 -76,77 -43,0 -77,-35 -77,-77 0,-42 34,-77 77,-77 42,0 76,35 76,77z"/>
  <path class="fil1" d="M4327 1871c0,43 -35,77 -77,77 -42,0 -77,-34 -77,-77 0,-42 35,-76 77,-76 42,0 77,34 77,76z"/>
  <path class="fil11" d="M4282 1871c0,18 -14,32 -32,32 -18,0 -32,-14 -32,-32 0,-17 14,-32 32,-32 18,0 32,15 32,32z"/>
  <path class="fil11" d="M4036 1633c0,18 -15,32 -32,32 -18,0 -32,-14 -32,-32 0,-18 14,-32 32,-32 17,0 32,14 32,32z"/>
  <path class="fil3" d="M7966 3362c0,221 -179,400 -400,400 -221,0 -400,-179 -400,-400 0,-222 179,-401 400,-401 221,0 400,179 400,401z"/>
  <path class="fil1" d="M7859 3387c0,0 -111,163 -303,152 -176,-10 -270,-152 -270,-152 0,0 79,-179 270,-185 224,-6 303,185 303,185z"/>
  <path class="fil3" d="M7698 3374c0,66 -54,121 -120,121 -67,0 -121,-55 -121,-121 0,-67 54,-121 121,-121 66,0 120,54 120,121z"/>
  <path class="fil2" d="M3674 2084c0,245 -199,444 -444,444 -245,0 -443,-199 -443,-444 0,-245 198,-443 443,-443 245,0 444,198 444,443z"/>
  <path class="fil1" d="M3258 2184c0,13 0,22 16,22 26,0 43,-20 43,-43 0,-22 -31,-49 -48,-49 -12,0 -11,10 -11,21l0 49zm-39 -239c0,-16 2,-27 -11,-27 -25,0 -37,24 -37,46 0,26 27,47 38,47 8,0 10,-20 10,-36l0 -30zm0 184c0,-28 1,-34 -27,-44 -54,-19 -94,-56 -94,-116 0,-58 39,-107 103,-119 10,-3 16,-5 17,-19 0,-12 18,-11 28,-11 11,0 10,5 10,13 0,15 19,13 35,15 9,2 65,12 65,24 0,5 -21,68 -29,68 -13,0 -27,-22 -58,-22 -13,0 -11,19 -11,27l0 48c0,25 1,34 28,43 63,23 105,64 105,131 0,77 -50,130 -114,130 -12,0 -17,8 -17,21 0,14 -9,11 -20,11 -10,0 -19,3 -19,-9 -1,-18 -9,-23 -28,-23 -30,0 -88,-27 -88,-37 0,-13 19,-86 29,-86 20,0 34,32 70,32 16,0 15,-16 15,-26l0 -51z"/>
  <path class="fil7" d="M5304 2460c0,245 -199,443 -443,443 -245,0 -444,-198 -444,-443 0,-245 199,-444 444,-444 244,0 443,199 443,444z"/>
  <path class="fil1" d="M5076 2263c22,7 36,52 20,124 -16,72 -40,236 -40,236l-60 0c0,0 28,-176 -28,-192 -56,-16 -92,192 -220,192 -128,0 -208,4 -212,-32 -4,-36 172,-68 244,-160 106,-136 260,-180 296,-168z"/>
  <path class="fil10" d="M4374 2916c0,245 -198,444 -443,444 -245,0 -444,-199 -444,-444 0,-245 199,-443 444,-443 245,0 443,198 443,443z"/>
  <path class="fil1" d="M3719 3033l412 0 0 -238 -412 0 0 238zm447 70l-482 0c-19,0 -35,-15 -35,-35l0 -308c0,-19 16,-35 35,-35l482 0c19,0 35,16 35,35l0 308c0,20 -16,35 -35,35z"/>
  <path class="fil1" d="M3932 2981c-8,0 -15,-2 -21,-7l-248 -186 42 -56 226 170 213 -169 44 55 -234 186c-7,5 -14,7 -22,7z"/>
  <path class="fil10" d="M7063 3345c0,239 -194,432 -433,432 -239,0 -432,-193 -432,-432 0,-239 193,-433 432,-433 239,0 433,194 433,433z"/>
  <path class="fil1" d="M6630 3105c-132,0 -239,108 -239,240 0,131 107,239 239,239 132,0 240,-108 240,-239 0,-132 -108,-240 -240,-240zm0 549c-171,0 -310,-139 -310,-309 0,-171 139,-310 310,-310 171,0 310,139 310,310 0,170 -139,309 -310,309z"/>
  <path class="fil1" d="M6630 3380c-5,0 -11,-2 -16,-4l-104 -53c-17,-8 -24,-29 -15,-47 8,-17 30,-24 47,-15l87 44 130 -72c17,-10 39,-3 48,14 10,17 3,38 -14,48l-146 80c-5,3 -11,5 -17,5z"/>
  <path class="fil7" d="M3338 3029c0,221 -179,400 -400,400 -221,0 -400,-179 -400,-400 0,-221 179,-400 400,-400 221,0 400,179 400,400z"/>
  <path class="fil1" d="M3026 3290c-9,0 -18,-4 -25,-11l-83 -82 -75 76c-10,9 -24,13 -37,8 -12,-4 -22,-15 -23,-29l-51 -385c-2,-19 12,-37 31,-40 19,-2 37,11 39,31l41 314 50 -50c14,-13 36,-13 50,0l83 83 38 -39c14,-14 36,-14 50,0 14,14 14,36 0,50l-64 63c-6,7 -15,11 -24,11z"/>
  <path class="fil1" d="M3099 3216c-9,0 -18,-3 -25,-10 -13,-14 -13,-36 0,-50l39 -39 -82 -82c-14,-14 -14,-36 0,-50l50 -50 -315 -41c-19,-3 -33,-20 -30,-40 2,-19 20,-33 39,-30l386 50c13,2 24,11 29,24 4,13 1,27 -9,36l-75 76 82 82c14,14 14,36 0,50l-64 64c-7,7 -16,10 -25,10z"/>
  <path class="fil10" d="M7602 5594l-1251 0c-39,0 -71,-31 -71,-70 0,-39 32,-70 71,-70l1251 0c75,0 136,-61 136,-136l0 -4c0,-75 -61,-136 -136,-136l-1251 0c-39,0 -71,-31 -71,-70 0,-39 32,-71 71,-71l1251 0c153,0 277,124 277,277l0 4c0,152 -124,276 -277,276z"/>
  <path class="fil10" d="M7729 5177c-5,0 -10,0 -15,-2 -28,-8 -44,-38 -35,-66l340 -1125 -1858 0 217 1131c5,28 -13,56 -42,61 -29,6 -56,-13 -62,-41l-241 -1257 2129 0 -382 1262c-7,23 -28,37 -51,37z"/>
  <path class="fil10" d="M8090 3984c-6,0 -12,-1 -17,-3 -28,-10 -42,-40 -32,-68l147 -414 352 0c29,0 53,24 53,53 0,29 -24,53 -53,53l-277 0 -123 344c-8,21 -28,35 -50,35z"/>
  <path class="fil10" d="M8837 3640l-296 0c-49,0 -89,-39 -89,-88 0,-49 40,-88 89,-88l296 0c48,0 88,39 88,88 0,49 -40,88 -88,88z"/>
  <path class="fil7" d="M7385 5894c0,139 112,251 251,251 138,0 250,-112 250,-251 0,-138 -112,-251 -250,-251 -139,0 -251,113 -251,251z"/>
  <path class="fil7" d="M6205 5894c0,139 113,251 251,251 139,0 251,-112 251,-251 0,-138 -112,-251 -251,-251 -138,0 -251,113 -251,251z"/>
  <path class="fil1" d="M7519 5894c0,65 52,117 117,117 64,0 117,-52 117,-117 0,-65 -53,-117 -117,-117 -65,0 -117,52 -117,117z"/>
  <path class="fil1" d="M6327 5894c0,65 52,117 117,117 65,0 117,-52 117,-117 0,-65 -52,-117 -117,-117 -65,0 -117,52 -117,117z"/>
  <path class="fil10" d="M7478 5147l-9 0c-29,-5 -49,-33 -44,-62l195 -1118c5,-29 32,-48 61,-43 29,5 48,32 43,61l-194 1119c-5,25 -27,43 -52,43z"/>
  <path class="fil10" d="M7204 5123l-4 0c-29,-2 -51,-27 -49,-56l73 -1107c2,-29 27,-51 56,-49 30,2 52,27 50,56l-73 1107c-2,28 -25,49 -53,49z"/>
  <path class="fil10" d="M6632 5147c-25,0 -48,-18 -52,-44l-176 -1119c-5,-29 15,-56 44,-60 29,-5 56,15 60,44l177 1118c4,29 -16,56 -44,61l-9 0z"/>
  <path class="fil10" d="M6924 5123c-28,0 -51,-22 -52,-50l-55 -1107c-2,-29 21,-54 50,-55 29,-2 54,21 55,50l55 1107c1,29 -21,54 -50,55l-3 0z"/>
  <path class="fil10" d="M7970 4369l-1751 0c-29,0 -53,-24 -53,-53 0,-29 24,-53 53,-53l1751 0c29,0 53,24 53,53 0,29 -24,53 -53,53z"/>
  <path class="fil10" d="M7824 4758l-1544 0c-29,0 -53,-23 -53,-53 0,-29 24,-52 53,-52l1544 0c29,0 53,23 53,52 0,30 -24,53 -53,53z"/>
  <path class="fil0" d="M4526 1090c0,120 -97,218 -217,218 -120,0 -217,-98 -217,-218 0,-120 97,-217 217,-217 120,0 217,97 217,217z"/>
  <path class="fil3" d="M3687 1443c0,68 -56,123 -124,123 -68,0 -123,-55 -123,-123 0,-69 55,-124 123,-124 68,0 124,55 124,124z"/>
  <path class="fil3" d="M6364 2746c0,68 -55,124 -123,124 -68,0 -123,-56 -123,-124 0,-68 55,-123 123,-123 68,0 123,55 123,123z"/>
  <path class="fil5" d="M8273 3104c0,46 -37,83 -82,83 -46,0 -83,-37 -83,-83 0,-45 37,-82 83,-82 45,0 82,37 82,82z"/>
  <path class="fil7" d="M6229 1043c0,88 -71,159 -158,159 -88,0 -159,-71 -159,-159 0,-87 71,-158 159,-158 87,0 158,71 158,158z"/>
  <path class="fil5" d="M5830 1290c0,347 -281,628 -628,628 -347,0 -629,-281 -629,-628 0,-347 282,-628 629,-628 347,0 628,281 628,628z"/>
  <path class="fil1" d="M4924 1256c-87,0 -158,71 -158,158 0,87 71,158 158,158 87,0 158,-71 158,-158 0,-87 -71,-158 -158,-158zm0 386c-126,0 -228,-102 -228,-228 0,-126 102,-228 228,-228 126,0 228,102 228,228 0,126 -102,228 -228,228z"/>
  <path class="fil1" d="M5459 1267c-87,0 -158,71 -158,158 0,86 71,157 158,157 87,0 157,-71 157,-157 0,-87 -70,-158 -157,-158zm0 386c-126,0 -228,-103 -228,-228 0,-126 102,-229 228,-229 126,0 228,103 228,229 0,125 -102,228 -228,228z"/>
  <path class="fil1" d="M5000 1368l201 3 -116 -157 -85 154zm272 74l0 0 -332 -4c-12,0 -24,-7 -30,-17 -6,-11 -6,-24 0,-35l140 -254c6,-10 17,-17 29,-18 12,-1 23,5 30,14l191 258c8,11 10,25 3,37 -6,12 -18,19 -31,19z"/>
  <path class="fil1" d="M5171 1060l-11 -2 -145 -47c-18,-6 -28,-26 -22,-44 6,-19 26,-29 44,-23l145 47c18,6 28,26 22,44 -5,15 -18,25 -33,25z"/>
  <path class="fil1" d="M5459 1442l-4 0c-19,-2 -33,-20 -31,-39l47 -429c2,-19 20,-33 39,-31 19,2 33,19 31,39l-47 429c-2,18 -17,31 -35,31z"/>
  <path class="fil1" d="M5636 1086c-7,0 -14,-2 -20,-6l-229 -156c-16,-11 -20,-33 -9,-49 11,-16 33,-21 49,-10l229 156c16,11 20,33 9,49 -7,10 -18,16 -29,16z"/>
  <polygon class="fil1" points="5272,1442 5459,1442 5459,1372 5272,1372 "/>
  <path class="fil1" d="M5085 1192c-20,0 -35,-15 -35,-35l0 -144c0,-20 15,-35 35,-35 19,0 35,15 35,35l0 144c0,20 -16,35 -35,35z"/>
  <path class="fil2" d="M6276 2194c0,218 -176,394 -393,394 -217,0 -394,-176 -394,-394 0,-217 177,-393 394,-393 217,0 393,176 393,393z"/>
  <path class="fil1" d="M5715 2142c-34,0 -61,28 -61,61 0,34 27,62 61,62 34,0 61,-28 61,-62 0,-33 -27,-61 -61,-61zm0 193c-73,0 -132,-59 -132,-132 0,-72 59,-131 132,-131 73,0 132,59 132,131 0,73 -59,132 -132,132z"/>
  <path class="fil1" d="M6027 2142c-34,0 -61,28 -61,61 0,34 27,62 61,62 34,0 61,-28 61,-62 0,-33 -27,-61 -61,-61zm0 193c-72,0 -132,-59 -132,-132 0,-72 60,-131 132,-131 73,0 132,59 132,131 0,73 -59,132 -132,132z"/>
  <polygon class="fil1" points="5823,2239 5919,2239 5919,2168 5823,2168 "/>
 </g>
</svg>
