<?xml version="1.0" encoding="UTF-8"?>
<!DOCTYPE svg PUBLIC "-//W3C//DTD SVG 1.1//EN" "http://www.w3.org/Graphics/SVG/1.1/DTD/svg11.dtd">
<!-- Creator: CorelDRAW X8 -->
<svg xmlns="http://www.w3.org/2000/svg" xml:space="preserve" width="8.5in" height="11in" version="1.1" style="shape-rendering:geometricPrecision; text-rendering:geometricPrecision; image-rendering:optimizeQuality; fill-rule:evenodd; clip-rule:evenodd"
viewBox="0 0 8500 11000"
 xmlns:xlink="http://www.w3.org/1999/xlink">
 <defs>
  <style type="text/css">
   <![CDATA[
    .str0 {stroke:#1976D2;stroke-width:3}
    .fil23 {fill:#FEFEFE;fill-rule:nonzero}
    .fil9 {fill:#FEFEFE;fill-rule:nonzero}
    .fil17 {fill:#848688;fill-rule:nonzero}
    .fil14 {fill:#373435;fill-rule:nonzero}
    .fil19 {fill:#718FC8;fill-rule:nonzero}
    .fil8 {fill:#3E4095;fill-rule:nonzero}
    .fil11 {fill:black;fill-rule:nonzero}
    .fil7 {fill:#1976D2;fill-rule:nonzero}
    .fil13 {fill:#1976D2;fill-rule:nonzero}
    .fil4 {fill:#263138;fill-rule:nonzero}
    .fil5 {fill:#445964;fill-rule:nonzero}
    .fil27 {fill:#995036;fill-rule:nonzero}
    .fil24 {fill:#B68775;fill-rule:nonzero}
    .fil0 {fill:#DFDFDF;fill-rule:nonzero}
    .fil12 {fill:#E8505B;fill-rule:nonzero}
    .fil3 {fill:#F4F4F4;fill-rule:nonzero}
    .fil6 {fill:#F9F9F9;fill-rule:nonzero}
    .fil1 {fill:white;fill-rule:nonzero}
    .fil10 {fill:#FEFEFE;fill-rule:nonzero;fill-opacity:0.200000}
    .fil25 {fill:black;fill-rule:nonzero;fill-opacity:0.200000}
    .fil18 {fill:#1976D2;fill-rule:nonzero;fill-opacity:0.200000}
    .fil26 {fill:black;fill-rule:nonzero;fill-opacity:0.301961}
    .fil15 {fill:#373435;fill-rule:nonzero;fill-opacity:0.400000}
    .fil20 {fill:black;fill-rule:nonzero;fill-opacity:0.400000}
    .fil16 {fill:#1976D2;fill-rule:nonzero;fill-opacity:0.400000}
    .fil2 {fill:#EBEBEB;fill-rule:nonzero;fill-opacity:0.501961}
    .fil22 {fill:white;fill-rule:nonzero;fill-opacity:0.701961}
    .fil21 {fill:white;fill-rule:nonzero;fill-opacity:0.800000}
   ]]>
  </style>
 </defs>
 <g id="Layer_x0020_1">
  <metadata id="CorelCorpID_0Corel-Layer"/>
  <g id="_2202749216832">
   <path class="fil0" d="M7230 5606l-2216 -395c-57,-10 -95,-65 -85,-122l244 -1369c10,-57 65,-95 121,-85l2217 395c57,11 95,65 85,122l-244 1369c-10,57 -65,95 -122,85z"/>
   <path class="fil1" d="M7192 4352c-16,92 -105,154 -197,137 -92,-16 -154,-105 -137,-197 16,-92 104,-154 197,-137 92,16 154,104 137,197z"/>
   <path class="fil1" d="M7227 4535c-11,0 -21,-1 -32,-3 -96,-17 -160,-109 -143,-205 17,-96 109,-160 205,-143 96,17 161,109 144,205 -9,46 -35,87 -73,114 -30,21 -65,32 -101,32zm-1 -340l0 0c-77,0 -146,55 -160,134 -16,89 43,173 132,189 43,8 86,-2 122,-26 35,-25 59,-63 67,-106 16,-88 -44,-173 -132,-189 -10,-1 -19,-2 -29,-2z"/>
   <g>
    <polygon class="fil1" points="5226,4663 5202,4798 5188,4795 5210,4673 5179,4667 5181,4655 "/>
    <path class="fil1" d="M5343 4810l-2 12 -95 -16 2 -10 66 -45c18,-12 22,-21 24,-30 2,-16 -7,-27 -27,-31 -16,-3 -29,0 -40,9l-8 -11c13,-10 31,-14 51,-10 27,5 42,22 38,44 -2,13 -8,24 -29,38l-54 37 74 13z"/>
    <polygon class="fil1" points="5489,4812 5462,4808 5455,4843 5441,4840 5448,4805 5372,4792 5374,4782 5461,4705 5476,4708 5392,4782 5450,4793 5456,4762 5469,4764 5464,4795 5491,4800 "/>
    <polygon class="fil1" points="5695,4849 5668,4844 5661,4880 5648,4877 5654,4842 5578,4828 5580,4818 5667,4742 5682,4745 5598,4819 5657,4830 5662,4798 5676,4801 5670,4832 5697,4837 "/>
    <path class="fil1" d="M5813 4866c-4,23 -23,38 -56,32 -19,-4 -37,-14 -45,-26l8 -10c7,11 22,20 39,23 23,4 37,-5 40,-21 3,-17 -6,-30 -40,-36l-29 -5 19 -67 74 14 -2 12 -62 -11 -12 42 17 3c41,7 53,26 49,50z"/>
    <path class="fil1" d="M5946 4889c-4,25 -27,38 -53,33 -36,-6 -51,-35 -43,-77 8,-46 37,-65 73,-59 13,3 24,7 31,13l-7 11c-7,-6 -15,-10 -25,-11 -29,-6 -51,10 -58,46 -1,3 -1,7 -1,11 9,-13 26,-19 45,-15 27,4 42,23 38,48zm-14 -2l0 0c3,-18 -8,-31 -28,-35 -21,-4 -37,6 -40,23 -3,15 7,31 30,35 20,4 35,-5 38,-23z"/>
    <path class="fil1" d="M6130 4923c-4,23 -24,37 -56,31 -19,-3 -37,-13 -45,-26l8 -9c7,10 22,20 39,23 22,4 37,-5 40,-21 2,-16 -7,-29 -32,-33l-10 -2 2 -10 46 -40 -69 -13 2 -12 87 15 -2 10 -47 41c29,7 41,25 37,46z"/>
    <path class="fil1" d="M6265 4946c-5,25 -27,38 -53,33 -36,-6 -51,-35 -43,-77 8,-46 37,-65 73,-59 13,2 23,7 31,13l-8 10c-6,-5 -15,-9 -25,-11 -29,-5 -51,11 -57,47 -1,3 -1,7 -1,11 9,-14 26,-19 45,-16 27,5 42,24 38,49zm-14 -2l0 0c3,-18 -8,-32 -28,-35 -21,-4 -37,6 -40,23 -3,15 7,31 30,35 20,4 35,-5 38,-23z"/>
    <polygon class="fil1" points="6406,4873 6404,4883 6325,4998 6310,4995 6387,4883 6318,4871 6314,4896 6300,4893 6307,4856 "/>
    <polygon class="fil1" points="6598,4908 6596,4918 6518,5032 6503,5030 6580,4917 6510,4905 6506,4930 6492,4928 6499,4890 "/>
    <path class="fil1" d="M6713 5028c-4,24 -27,35 -59,30 -33,-6 -50,-24 -45,-48 3,-16 14,-26 32,-29 -13,-7 -19,-19 -16,-33 4,-22 25,-32 53,-27 29,5 45,22 41,44 -2,14 -12,23 -27,26 16,8 24,21 21,37zm-14 -2l0 0c3,-17 -10,-30 -34,-34 -23,-4 -39,4 -42,20 -3,17 9,30 33,34 24,4 40,-4 43,-20zm-32 -45l0 0c21,4 36,-3 38,-18 3,-15 -9,-27 -29,-30 -20,-4 -35,3 -38,18 -2,15 8,26 29,30z"/>
    <path class="fil1" d="M6849 5021c-8,46 -37,65 -74,58 -12,-2 -23,-6 -30,-13l7 -10c6,6 15,9 25,11 29,5 51,-10 58,-46 0,-4 1,-7 1,-11 -9,13 -27,19 -45,15 -27,-5 -43,-24 -38,-48 4,-25 27,-38 53,-33 36,6 51,34 43,77zm-14 -30l0 0c2,-15 -7,-31 -31,-35 -19,-4 -35,5 -38,23 -3,18 8,31 29,35 20,4 37,-7 40,-23z"/>
    <polygon class="fil1" points="6997,4979 6973,5113 6959,5111 6981,4989 6949,4983 6952,4971 "/>
    <path class="fil1" d="M7114 5126l-2 12 -95 -17 2 -9 66 -45c17,-13 22,-21 24,-30 2,-16 -7,-27 -27,-31 -16,-3 -29,0 -40,8l-8 -10c13,-10 30,-14 51,-11 27,5 42,22 38,45 -2,13 -8,23 -29,38l-54 37 74 13z"/>
    <path class="fil1" d="M7239 5121c-4,23 -23,37 -56,31 -19,-3 -37,-13 -45,-26l9 -10c7,11 21,20 38,23 23,4 37,-4 40,-21 3,-16 -7,-28 -32,-33l-9 -1 2 -11 45 -40 -69 -12 3 -12 86 15 -2 10 -46 41c28,7 40,25 36,46z"/>
   </g>
   <polygon class="fil1" points="6181,5075 6171,5133 7248,5326 7259,5267 "/>
   <polygon class="fil1" points="6686,5285 6675,5344 7228,5442 7238,5384 "/>
   <path class="fil2" d="M5549 4601l-316 -56c-38,-7 -63,-43 -56,-80l36 -202c7,-38 42,-63 80,-56l316 56c38,7 63,43 56,80l-36 202c-7,38 -42,63 -80,56z"/>
   <path class="fil0" d="M5182 4439l3 -21 233 41c27,5 53,-13 58,-40 4,-27 -14,-53 -40,-57l-233 -42 4 -22 232 42c39,7 65,44 58,83 -7,39 -44,65 -83,58l-232 -42z"/>
   <polygon class="fil0" points="5484,4432 5488,4410 5648,4439 5644,4460 "/>
   <polygon class="fil1" points="6473,4234 5310,4026 5328,3927 6491,4134 "/>
   <g>
    <g>
     <path class="fil0" d="M3478 4433l-1677 407c-65,16 -131,-24 -147,-89l-422 -1737c-16,-66 24,-132 89,-147l1677 -408c65,-16 131,24 147,90l422 1737c16,65 -24,131 -89,147z"/>
    </g>
    <g>
     <g>
      <g>
       <g>
        <path class="fil1" d="M2877 3940c0,0 -1,0 -3,1 -3,1 -7,2 -12,3 -10,3 -25,7 -43,12 -38,9 -93,23 -161,40 -137,34 -327,80 -541,133l-4 1 -1 -4c-11,-27 -23,-57 -34,-86 -100,-254 -189,-481 -248,-629l4 2c-62,14 -110,26 -145,34 -16,3 -29,6 -38,8 -4,1 -8,2 -10,2 -2,1 -4,1 -4,1 0,0 1,-1 4,-1 2,-1 5,-2 9,-3 10,-3 22,-6 39,-10 34,-9 82,-21 143,-37l3 0 1 2c58,148 149,374 250,627 12,30 23,59 34,87l-5 -3c214,-51 404,-97 542,-130 68,-16 123,-29 161,-38 19,-4 33,-7 44,-9 5,-1 8,-2 11,-3 3,0 4,0 4,0z"/>
       </g>
      </g>
      <g>
       <g>
        <path class="fil1" d="M2056 3972c0,0 1,0 3,-1 3,-1 7,-2 12,-3 10,-3 25,-7 43,-11 38,-10 94,-24 163,-41 139,-34 335,-82 561,-138l-3 4c-6,-98 -13,-205 -20,-315 -4,-57 -7,-113 -11,-166l6 4c-264,63 -496,119 -663,159 -83,20 -150,36 -196,47 -23,5 -41,9 -53,12 -6,1 -11,2 -14,3 -3,0 -5,1 -5,0 0,0 2,0 5,-1 3,-1 8,-2 13,-4 13,-3 30,-8 53,-13 46,-12 113,-29 196,-49 167,-41 399,-98 661,-163l6 -1 0 5c3,54 7,109 10,166 7,110 14,217 20,316l1 3 -4 1c-227,55 -422,102 -562,135 -69,16 -125,29 -163,38 -19,5 -34,8 -44,10 -5,1 -8,2 -11,3 -3,0 -4,0 -4,0z"/>
       </g>
      </g>
      <g>
       <g>
        <path class="fil1" d="M2357 4285c-1,0 -3,-7 -9,-17 -6,-11 -17,-25 -37,-33 -20,-9 -48,-9 -72,7 -23,15 -38,47 -30,79 7,32 36,54 63,56 29,4 54,-10 67,-26 14,-17 18,-35 18,-47 1,-12 -1,-19 0,-19 0,0 1,2 1,5 1,3 2,8 3,14 0,13 -3,32 -17,51 -14,18 -41,34 -72,30 -31,-2 -64,-26 -72,-62 -9,-35 9,-72 35,-88 26,-17 58,-16 78,-6 21,10 33,26 38,37 3,6 4,11 5,14 1,3 1,5 1,5z"/>
       </g>
      </g>
      <g>
       <g>
        <path class="fil1" d="M2847 4166c-1,0 -3,-7 -9,-17 -6,-11 -17,-25 -37,-33 -20,-9 -48,-9 -72,7 -23,15 -38,47 -30,79 7,32 36,54 63,56 28,4 54,-10 67,-26 14,-17 18,-35 18,-47 1,-12 -1,-19 0,-19 0,0 1,2 1,5 1,3 2,8 2,14 1,13 -2,32 -16,51 -14,18 -41,34 -73,30 -30,-2 -63,-26 -71,-62 -9,-35 9,-72 35,-88 26,-17 57,-16 78,-6 21,10 33,26 38,37 3,6 4,11 5,14 1,3 1,5 1,5z"/>
       </g>
      </g>
      <g>
       <path class="fil1" d="M2965 3181c30,120 -44,241 -164,270 -120,29 -241,-45 -270,-164 -29,-120 44,-241 164,-271 120,-29 241,45 270,165z"/>
      </g>
     </g>
     <g>
      <g>
       <path class="fil0" d="M2843 3150c1,1 -7,17 -20,42 -14,25 -33,59 -54,97 -8,14 -16,27 -23,40l-2 4 -4 -2c-28,-15 -53,-28 -70,-38 -17,-10 -27,-16 -27,-17 1,-1 11,4 29,12 18,8 43,21 72,35l-6 2c7,-13 15,-26 23,-40 22,-38 42,-72 56,-96 15,-25 25,-40 26,-39z"/>
      </g>
     </g>
    </g>
   </g>
   <path class="fil3" d="M7903 4630c-86,-572 -386,-1121 -859,-1454 -474,-333 -1124,-423 -1648,-177 -845,398 -1196,1520 -2076,1833 -578,206 -1245,2 -1815,229 -452,181 -778,642 -797,1128 -3,69 4,149 19,238 153,909 947,1572 1869,1578l2223 15c579,145 1211,2 1711,-325 500,-327 874,-824 1114,-1371 233,-530 346,-1122 259,-1694z"/>
   <g>
    <g>
     <path class="fil4" d="M8643 8508c0,2 -1994,4 -4453,4 -2460,0 -4454,-2 -4454,-4 0,-2 1994,-3 4454,-3 2459,0 4453,1 4453,3z"/>
    </g>
   </g>
   <g>
    <g>
     <g>
      <g>
       <g>
        <g>
         <g>
          <g>
           <g>
            <path class="fil5" d="M5241 8511l-1845 -9c-222,-1 -401,-181 -400,-403l19 -4626c1,-223 182,-402 404,-401l1845 9c222,1 401,181 400,403l-19 4627c-1,222 -182,401 -404,400z"/>
           </g>
          </g>
         </g>
         <g>
          <g>
           <g>
            <path class="fil6" d="M5262 3240l-358 -1c-48,0 -87,40 -87,90l-1 65c0,50 -39,91 -87,91l-697 -4c-48,0 -87,-41 -87,-91l1 -65c0,-50 -39,-91 -87,-91l-126 -1 -313 -1c-155,-1 -282,125 -283,280l-19 4516c-1,155 125,282 280,283l1842 8c155,1 282,-125 283,-280l19 -4516c1,-155 -125,-282 -280,-283z"/>
           </g>
          </g>
         </g>
        </g>
       </g>
      </g>
     </g>
    </g>
   </g>
   <g>
    <g>
     <g>
      <path class="fil4" d="M5302 3685c0,1 -18,2 -46,2 -29,1 -69,1 -114,1l-3 0 -1 -3c0,-6 -1,-12 -2,-18 -8,-56 -14,-105 -18,-137l2 2c-26,-1 -41,-2 -41,-2 0,-1 15,-2 41,-3l2 0 1 2c5,32 12,81 20,137 1,6 2,12 3,18l-4 -3c45,0 85,1 114,1 28,1 46,2 46,3z"/>
     </g>
    </g>
    <g>
     <g>
      <path class="fil4" d="M5137 3652c0,-1 5,-1 13,-1 9,-1 20,-1 34,-1 29,-1 70,-2 118,-2l-3 3c3,-20 7,-41 11,-63 2,-12 4,-23 6,-34l3 4c-55,0 -104,0 -139,-1 -16,0 -30,-1 -41,-1 -10,0 -15,-1 -15,-1 0,-1 5,-1 15,-2 11,0 25,0 41,-1 35,0 84,-1 139,-1l4 0 0 4c-2,11 -4,22 -6,34 -4,22 -8,43 -12,63l0 3 -3 0c-48,0 -89,0 -118,-1 -14,0 -25,-1 -34,-1 -8,0 -13,-1 -13,-1z"/>
     </g>
    </g>
    <g>
     <g>
      <path class="fil4" d="M5182 3728c-1,1 -1,-6 -8,-10 -3,-2 -8,-3 -12,-2 -5,2 -8,7 -8,12 0,6 3,10 8,12 4,2 9,1 12,-1 7,-4 7,-11 8,-11 0,0 1,2 1,5 0,2 -2,7 -6,10 -4,4 -11,6 -18,3 -7,-2 -13,-9 -13,-18 0,-8 6,-16 13,-18 7,-2 14,0 18,4 4,3 6,7 6,10 0,3 -1,4 -1,4z"/>
     </g>
    </g>
    <g>
     <g>
      <path class="fil4" d="M5285 3728c-1,1 -1,-6 -8,-10 -3,-2 -8,-3 -12,-2 -5,2 -8,7 -8,12 0,6 3,10 8,12 4,2 9,1 12,-1 7,-4 7,-11 8,-11 0,0 1,2 1,5 0,2 -2,7 -6,10 -4,4 -11,6 -18,3 -7,-2 -13,-9 -13,-18 0,-8 6,-16 13,-18 7,-2 14,0 18,4 4,3 6,7 6,10 0,3 -1,4 -1,4z"/>
     </g>
    </g>
   </g>
   <g>
    <g>
     <g>
      <path class="fil4" d="M3661 3702c0,2 -62,3 -138,3 -76,0 -137,-1 -137,-3 0,-2 61,-4 137,-4 76,0 138,2 138,4z"/>
     </g>
    </g>
    <g>
     <g>
      <path class="fil4" d="M3661 3650c0,2 -62,3 -138,3 -76,0 -137,-1 -137,-3 0,-2 61,-4 137,-4 76,0 138,2 138,4z"/>
     </g>
    </g>
    <g>
     <g>
      <path class="fil4" d="M3661 3598c0,2 -62,3 -138,3 -76,0 -137,-1 -137,-3 0,-2 61,-4 137,-4 76,0 138,2 138,4z"/>
     </g>
    </g>
   </g>
   <g>
    <path class="fil7 str0" d="M4120 4442c0,0 -185,-3 -226,58 -40,60 -208,436 -208,436l262 136 56 -161 92 337c-105,84 -254,842 -225,1162l985 3c0,0 6,-887 -260,-1178l63 -352 60 171 278 -115 -209 -376c-36,-64 -103,-103 -176,-104l-68 0c0,0 -29,252 -212,247 -183,-5 -212,-264 -212,-264z"/>
   </g>
   <g>
    <g>
     <path class="fil8 str0" d="M4691 5384c-21,9 -42,20 -61,35 -11,7 -21,17 -31,26 -9,10 -19,20 -27,31 -33,45 -52,102 -52,161 0,30 5,59 14,86 8,27 22,52 38,75 8,11 18,21 27,31 10,10 20,19 31,27 21,16 45,28 69,37 41,15 84,19 124,14l0 7c-40,4 -84,1 -127,-15 -24,-8 -48,-21 -70,-38 -12,-8 -22,-17 -32,-27 -9,-10 -19,-20 -27,-32 -17,-23 -32,-49 -40,-77 -9,-28 -14,-58 -15,-88 1,-60 20,-119 55,-165 8,-11 18,-22 27,-32 10,-9 20,-19 32,-27 19,-14 40,-26 62,-35 1,2 2,4 3,6z"/>
    </g>
   </g>
   <g>
    <g>
     <path class="fil6" d="M4199 5019c-1,0 1,-19 -7,-50 -8,-30 -29,-75 -75,-110 -22,-17 -51,-32 -84,-37 -33,-6 -70,-5 -105,9 -18,6 -35,15 -51,27 -16,11 -30,26 -42,42 -20,27 -33,60 -37,94l-7 -3c5,-35 18,-68 38,-95 12,-17 27,-32 44,-44 16,-12 34,-21 52,-28 37,-13 75,-14 109,-8 34,6 63,21 87,39 23,18 40,39 51,59 12,20 19,39 22,55 3,7 3,15 4,21 1,6 2,11 1,16 1,3 1,7 1,9 0,2 0,4 -1,4zm-116 180c12,-6 24,-13 34,-21 46,-34 67,-79 75,-110 8,-31 6,-50 7,-49 1,0 1,1 1,3 0,3 0,6 -1,10 1,4 0,9 -1,15 -1,7 -1,14 -4,22 -3,16 -10,34 -22,55 -11,20 -28,41 -51,58 -11,9 -23,16 -37,23l-1 -6z"/>
    </g>
   </g>
   <g>
    <g>
     <path class="fil6" d="M4199 6217c0,0 0,-5 -3,-14 -3,-10 -9,-23 -23,-33 -13,-10 -35,-16 -56,-8 -21,7 -39,29 -39,55 0,26 18,49 39,56 21,8 43,2 56,-8 14,-10 20,-24 23,-33 3,-9 3,-15 3,-15 1,0 1,2 1,4 0,3 0,7 -1,12 -2,10 -8,24 -23,36 -14,12 -38,19 -61,10 -24,-8 -44,-32 -44,-62 0,-29 20,-54 44,-61 23,-9 47,-2 61,10 15,11 21,26 23,36 1,5 1,9 1,11 0,3 0,4 -1,4z"/>
    </g>
   </g>
   <g>
    <g>
     <path class="fil6" d="M4091 4618c-1,0 -1,-5 -3,-15 -3,-9 -9,-22 -23,-32 -13,-11 -35,-16 -56,-8 -21,7 -39,29 -39,55 0,26 18,48 39,56 21,8 43,2 56,-8 14,-10 20,-24 23,-33 2,-9 2,-15 3,-15 0,0 0,2 1,4 0,3 0,7 -2,12 -1,10 -7,24 -22,36 -14,11 -38,18 -62,10 -23,-8 -44,-33 -43,-62 -1,-29 20,-54 43,-61 24,-9 48,-2 62,10 15,11 21,26 22,36 2,5 2,9 2,11 -1,3 -1,4 -1,4z"/>
    </g>
   </g>
   <g>
    <g>
     <path class="fil6" d="M4294 5918c0,0 0,-2 -1,-6 -1,-4 -2,-9 -3,-16 -2,-15 -6,-36 -10,-63 -9,-54 -22,-130 -37,-221l4 3 -298 47 2 -7 295 -46 3 -1 0 3c14,92 26,169 34,224 4,26 7,47 9,62 1,7 1,12 2,16 0,4 1,5 0,5zm-348 -241l1 4c1,6 2,13 3,20 2,14 4,28 6,41 5,27 9,54 13,80 8,51 15,100 22,144l-3 -2c91,-14 167,-26 221,-34 26,-4 48,-7 63,-9 7,-1 12,-1 16,-2 4,0 6,-1 6,-1 1,0 -1,1 -5,2 -4,0 -9,1 -16,2 -15,3 -35,7 -62,11 -54,9 -131,22 -223,37l-3 0 0 -3c-7,-44 -15,-93 -23,-144 -4,-26 -8,-53 -13,-80 -2,-13 -4,-27 -6,-41l-1 -5c1,-7 3,-14 4,-20z"/>
    </g>
   </g>
   <g>
    <g>
     <path class="fil9 str0" d="M4715 5044l8 -13c35,-54 84,-131 143,-222l1 4c-89,-58 -195,-126 -307,-199 -1,0 10,-2 5,-1l0 0 0 0 0 1 -1 0 0 2 -2 2 -4 6 -6 10c-5,7 -9,14 -14,21 -9,13 -18,27 -27,41 -17,27 -34,53 -51,79 -34,51 -65,99 -95,144l0 -4c90,60 166,110 220,145l38 25 -1 3 -37 -24c-55,-35 -132,-85 -224,-144l-3 -2 2 -2c29,-45 61,-94 94,-145 17,-26 34,-52 51,-79 9,-14 18,-27 27,-41 5,-7 9,-14 14,-21l6 -10 4 -6 2 -2 0 -2 1 0 0 -1 0 0 0 0c-4,1 6,-1 5,-1 112,73 217,142 306,200l3 2 -2 2c-60,92 -111,168 -146,222l-9 13 -1 -3z"/>
    </g>
   </g>
   <g>
    <g>
     <path class="fil6" d="M4462 6051c0,0 0,1 -1,3 -1,1 -2,4 -4,6 -3,6 -7,14 -13,24 -12,22 -29,52 -51,90 -34,61 -80,142 -135,237l-7 0c55,-96 103,-178 140,-240 22,-38 40,-68 52,-89 6,-10 11,-17 14,-23 3,-5 5,-8 5,-8zm205 361c-55,-95 -102,-177 -136,-238 -22,-38 -39,-68 -51,-90 -5,-10 -10,-18 -13,-24 -2,-2 -3,-5 -4,-6 -1,-2 -1,-3 -1,-3 0,0 2,3 5,8 3,6 8,13 14,23 12,21 30,51 52,89 37,62 85,145 141,241l-7 0z"/>
    </g>
   </g>
   <g>
    <g>
     <path class="fil9" d="M4265 5257c0,0 0,2 2,6 1,4 2,9 4,15 4,14 9,32 16,56 14,46 32,114 53,192l-5 -1c30,-31 63,-64 98,-99 35,-35 69,-68 99,-99l2 6c-79,-22 -147,-40 -193,-53 -23,-7 -42,-12 -56,-16 -6,-2 -11,-4 -15,-5 -3,-1 -5,-2 -5,-2 0,0 1,0 4,1 4,1 9,2 15,4 14,3 33,8 56,14 49,12 117,30 195,50l6 2 -4 4c-31,31 -64,64 -99,99 -35,35 -68,68 -99,99l-4 4 -1 -6c-21,-79 -39,-146 -51,-195 -6,-24 -10,-42 -14,-56 -1,-6 -2,-11 -3,-15 -1,-3 -1,-5 -1,-5z"/>
    </g>
   </g>
   <g>
    <g>
     <g>
      <path class="fil9" d="M4602 5236c0,2 -112,7 -250,10 -137,3 -249,4 -249,2 0,-2 111,-6 249,-9 138,-4 250,-5 250,-3z"/>
     </g>
    </g>
    <g>
     <g>
      <path class="fil9" d="M3922 4683c2,-1 23,54 47,123 24,68 41,124 39,125 -1,0 -22,-55 -46,-123 -24,-68 -42,-124 -40,-125z"/>
     </g>
    </g>
    <g>
     <g>
      <path class="fil9" d="M4685 4700c1,0 0,16 -2,40 -3,25 -7,59 -13,96 -6,37 -13,71 -18,95 -5,24 -9,39 -10,38 -1,0 1,-15 5,-39 5,-27 10,-59 16,-95 5,-36 10,-69 15,-96 4,-24 6,-39 7,-39z"/>
     </g>
    </g>
    <g>
     <g>
      <path class="fil9" d="M4156 5413c-1,0 -4,-10 -6,-27 -1,-16 0,-39 6,-64 6,-25 16,-46 25,-60 9,-14 17,-22 17,-21 2,1 -23,34 -35,82 -12,49 -5,90 -7,90z"/>
     </g>
    </g>
    <g>
     <g>
      <path class="fil9" d="M4231 5335c-2,1 -9,-19 -8,-45 0,-25 7,-45 9,-45 2,1 -2,21 -2,45 0,25 3,45 1,45z"/>
     </g>
    </g>
    <g>
     <g>
      <path class="fil9" d="M4662 6181c0,0 -3,-1 -8,-4 -6,-3 -14,-6 -23,-12 -20,-11 -47,-29 -77,-56 -31,-27 -62,-64 -91,-109 -29,-45 -55,-99 -74,-157 -37,-118 -46,-230 -51,-310 -3,-40 -4,-73 -5,-95 0,-11 0,-20 0,-26 0,-6 0,-9 0,-9 0,0 1,3 1,9 1,6 1,15 2,25 2,24 4,56 7,95 6,80 16,192 53,309 19,58 44,111 72,155 29,45 60,82 89,109 29,27 56,46 75,58 19,11 30,17 30,18z"/>
     </g>
    </g>
    <g>
     <g>
      <path class="fil10" d="M4343 5498c19,142 95,276 208,365 41,32 90,62 107,112 14,40 4,85 -13,124 -7,15 -17,32 -33,36 -17,5 -34,-5 -48,-16 -92,-68 -150,-173 -183,-283 -33,-109 -42,-224 -50,-338l12 0z"/>
     </g>
    </g>
   </g>
   <g>
    <g>
     <path class="fil4" d="M4889 6952c0,2 -235,4 -524,4 -290,0 -524,-2 -524,-4 0,-2 234,-3 524,-3 289,0 524,1 524,3z"/>
    </g>
   </g>
   <g>
    <g>
     <path class="fil4" d="M4889 4063c0,2 -235,3 -524,3 -290,0 -524,-1 -524,-3 0,-2 234,-4 524,-4 289,0 524,2 524,4z"/>
    </g>
   </g>
   <g>
    <g>
     <path class="fil4" d="M4889 7039c0,2 -235,3 -524,3 -290,0 -524,-1 -524,-3 0,-2 234,-4 524,-4 289,0 524,2 524,4z"/>
    </g>
   </g>
   <g>
    <g>
     <polygon class="fil11" points="4294,7291 4294,7441 4259,7441 4259,7319 4229,7319 4229,7291 "/>
     <path class="fil11" d="M4320 7366c0,-50 28,-78 65,-78 37,0 64,28 64,78 0,50 -27,78 -64,78 -37,0 -65,-28 -65,-78zm94 0l0 0c0,-34 -12,-49 -29,-49 -18,0 -30,15 -30,49 0,34 12,48 30,48 17,0 29,-14 29,-48z"/>
    </g>
    <g>
     <path class="fil4" d="M4546 7324c0,21 -13,33 -32,33 -6,0 -12,-2 -17,-5l6 -10c3,2 7,3 11,3 10,0 17,-6 17,-18 -3,4 -8,6 -15,6 -12,0 -21,-8 -21,-19 0,-13 10,-21 23,-21 17,0 28,11 28,31zm-16 -11l0 0c0,-5 -4,-9 -11,-9 -6,0 -10,3 -10,9 0,5 4,9 10,9 6,0 11,-4 11,-9z"/>
     <path class="fil4" d="M4602 7324c0,21 -13,33 -32,33 -6,0 -13,-2 -17,-5l5 -10c4,2 8,3 12,3 10,0 17,-6 17,-18 -3,4 -9,6 -15,6 -12,0 -21,-8 -21,-19 0,-13 10,-21 23,-21 17,0 28,11 28,31zm-16 -11l0 0c0,-5 -4,-9 -11,-9 -6,0 -10,3 -10,9 0,5 4,9 10,9 6,0 11,-4 11,-9z"/>
    </g>
    <g>
     <polygon class="fil4" points="4601,7391 4493,7391 4493,7378 4601,7378 "/>
    </g>
   </g>
   <g>
    <g>
     <path class="fil12" d="M4665 6842c0,2 -130,3 -290,3 -161,0 -290,-1 -290,-3 0,-2 129,-4 290,-4 160,0 290,2 290,4z"/>
    </g>
   </g>
   <g>
    <path class="fil13" d="M3346 7356c0,-116 94,-210 210,-210 115,0 209,94 209,210 0,115 -94,209 -209,209 -116,0 -210,-94 -210,-209z"/>
   </g>
   <g>
    <g>
     <path class="fil6" d="M3609 7238c0,0 -4,4 -12,10 -8,7 -19,16 -33,27 -28,21 -67,51 -111,83 0,-11 0,-3 0,-5l0 0 1 0 0 0 0 0 1 1 2 2 4 3 8 6c6,4 11,8 16,11 10,8 20,16 29,23 19,14 35,26 50,38 14,11 25,19 33,26 8,6 12,10 12,10 -1,1 -5,-2 -14,-8 -9,-7 -21,-15 -34,-24 -15,-11 -32,-23 -51,-37 -9,-7 -19,-14 -29,-22 -5,-4 -11,-8 -16,-12l-8 -5 -4 -3 -2 -2 -1 -1 0 0 -1 0 0 0 0 0c0,-3 0,5 0,-6 43,-33 83,-62 112,-83 13,-9 25,-17 34,-24 9,-5 13,-8 14,-8z"/>
    </g>
   </g>
   <g>
    <polygon class="fil0" points="3827,8131 3409,8131 3409,7713 3827,7713 "/>
   </g>
   <g>
    <polygon class="fil0" points="4358,8131 3940,8131 3940,7713 4358,7713 "/>
   </g>
   <g>
    <polygon class="fil0" points="4889,8131 4471,8131 4471,7713 4889,7713 "/>
   </g>
   <g>
    <polygon class="fil13" points="4746,3962 3965,3962 3965,3917 4746,3917 "/>
   </g>
   <path class="fil14" d="M1829 6071c0,0 -1,-1 -2,-3 -1,-2 -2,-5 -4,-8 -4,-7 -10,-17 -19,-30 -18,-25 -48,-61 -96,-90 -24,-15 -53,-27 -85,-32 -33,-4 -69,-2 -104,11 -35,13 -69,37 -89,73 -21,36 -27,78 -39,118 -7,20 -14,39 -25,56 -11,17 -27,30 -43,41 -15,12 -32,23 -47,35 -15,12 -28,27 -39,42 -21,31 -33,65 -40,97 -6,32 -7,63 -5,91 4,56 16,100 23,130 4,15 8,26 10,34 2,8 4,12 4,12 0,0 -1,-4 -3,-12 -2,-9 -4,-21 -8,-35 -7,-30 -18,-74 -21,-129 -1,-28 0,-58 6,-90 7,-31 19,-64 40,-94 10,-15 22,-29 37,-41 15,-11 31,-22 48,-34 16,-12 32,-25 44,-43 11,-18 19,-38 25,-58 13,-41 19,-82 39,-116 19,-35 51,-58 85,-71 34,-13 69,-15 101,-11 32,5 60,16 84,30 47,28 77,63 95,88 10,12 16,22 21,29 4,7 7,10 7,10z"/>
   <path class="fil14" d="M1305 6218c11,-10 16,-3 31,0 15,2 28,10 40,20 51,41 74,114 55,177 -47,2 -95,-23 -120,-63 -24,-40 -25,-94 -1,-135l-5 1z"/>
   <path class="fil14" d="M1758 6012c6,-14 13,-10 28,-14 15,-4 30,-3 45,1 64,15 116,71 125,136 -41,23 -95,21 -135,-5 -39,-26 -63,-74 -59,-122l-4 4z"/>
   <path class="fil14" d="M1205 6497c30,-34 76,-54 122,-52 46,2 90,26 117,64 -34,31 -79,48 -124,49 -45,0 -91,-21 -125,-51l10 -10z"/>
   <path class="fil14" d="M1242 6289c-46,1 -92,-20 -122,-55 -30,-35 -42,-84 -33,-129 48,-11 101,6 134,43 33,37 43,93 26,139l-5 2z"/>
   <path class="fil14" d="M1402 6044c-43,16 -94,12 -134,-11 -39,-23 -68,-65 -74,-111 42,-26 98,-28 141,-4 43,24 72,73 71,122l-4 4z"/>
   <path class="fil14" d="M1455 5964c43,-17 94,-13 133,10 40,24 68,66 75,111 -42,27 -98,28 -141,4 -44,-24 -72,-73 -71,-122l4 -3z"/>
   <path class="fil14" d="M1519 5920c-44,-14 -80,-50 -96,-93 -15,-43 -10,-94 14,-133 49,6 93,41 111,87 18,47 8,102 -24,140l-5 -1z"/>
   <path class="fil14" d="M1682 5928c-15,-43 -10,-93 14,-133 24,-39 66,-66 112,-72 26,42 26,99 1,141 -25,43 -74,70 -124,69l-3 -5z"/>
   <polygon class="fil14" points="1024,7033 937,6486 1604,6494 1538,7025 "/>
   <path class="fil14" d="M1311 6387c36,22 78,25 111,9 33,-17 56,-53 61,-96 -37,-17 -77,-19 -111,-5 -33,14 -60,43 -73,82l12 10z"/>
   <path class="fil14" d="M1616 6504c36,23 78,26 111,10 33,-17 56,-53 61,-96 -37,-18 -77,-20 -111,-6 -33,14 -60,44 -73,82l12 10z"/>
   <path class="fil14" d="M1445 6241c18,39 51,65 88,69 36,4 75,-13 103,-47 -21,-34 -54,-58 -89,-65 -36,-7 -75,3 -107,28l5 15z"/>
   <path class="fil14" d="M1557 6378c-43,-1 -80,18 -100,49 -20,31 -20,74 -2,113 40,-4 76,-23 97,-52 22,-30 29,-69 21,-109l-16 -1z"/>
   <path class="fil14" d="M1664 6593c-18,38 -17,80 3,111 20,31 58,49 101,50 14,-39 12,-79 -6,-111 -18,-32 -49,-48 -89,-57l-9 7z"/>
   <path class="fil14" d="M1841 6618c0,1 -7,-10 -26,-17 -10,-4 -22,-6 -36,-6 -15,-1 -31,1 -50,3 -18,1 -39,2 -60,-6 -22,-7 -39,-26 -50,-48 -12,-22 -17,-48 -22,-74 -5,-25 -10,-52 -25,-75 -15,-24 -37,-41 -57,-58 -20,-17 -40,-34 -54,-55 -27,-41 -32,-89 -27,-125 6,-37 21,-64 33,-81 7,-8 12,-14 16,-17 4,-4 6,-6 6,-6 1,0 -1,3 -5,7 -4,3 -9,10 -15,18 -11,16 -25,44 -30,80 -4,35 1,81 28,121 13,19 32,36 53,53 20,17 42,34 58,59 16,24 21,52 26,78 5,26 10,51 21,72 10,21 26,39 46,46 20,7 40,6 58,6 18,-2 35,-3 50,-2 15,1 27,3 37,7 10,4 16,10 20,13 2,2 3,4 4,5 1,1 1,2 1,2z"/>
   <path class="fil14" d="M1841 6618c0,1 -7,-10 -26,-17 -10,-4 -22,-6 -36,-6 -15,-1 -31,1 -50,3 -18,1 -39,2 -60,-6 -22,-7 -39,-26 -50,-48 -12,-22 -17,-48 -22,-74 -5,-25 -10,-52 -25,-75 -15,-24 -37,-41 -57,-58 -20,-17 -40,-34 -54,-55 -27,-41 -32,-89 -27,-125 6,-37 21,-64 33,-81 7,-8 12,-14 16,-17 4,-4 6,-6 6,-6 1,0 -1,3 -5,7 -4,3 -9,10 -15,18 -11,16 -25,44 -30,80 -4,35 1,81 28,121 13,19 32,36 53,53 20,17 42,34 58,59 16,24 21,52 26,78 5,26 10,51 21,72 10,21 26,39 46,46 20,7 40,6 58,6 18,-2 35,-3 50,-2 15,1 27,3 37,7 10,4 16,10 20,13 2,2 3,4 4,5 1,1 1,2 1,2z"/>
   <path class="fil14" d="M568 6674c3,-56 -24,-112 -69,-145 -45,-33 -107,-41 -159,-21 38,88 126,153 222,164l6 2z"/>
   <path class="fil14" d="M524 6697c-33,36 -31,94 -7,136 23,42 63,73 103,100 14,-46 12,-96 -5,-141 -17,-44 -48,-83 -89,-108l-2 13z"/>
   <path class="fil14" d="M682 6529c5,52 32,102 74,134 41,32 95,47 147,40 -12,-53 -33,-106 -74,-141 -40,-36 -104,-49 -149,-19l2 -14z"/>
   <path class="fil14" d="M681 6476c-8,-48 -55,-83 -104,-87 -48,-5 -95,16 -134,45 29,33 71,55 114,59 44,4 89,-9 124,-35l0 18z"/>
   <path class="fil14" d="M432 6882c-45,39 -57,108 -38,166 19,57 64,102 114,136 19,-57 31,-118 21,-177 -10,-59 -46,-116 -100,-140l3 15z"/>
   <path class="fil14" d="M673 6342c25,-36 66,-59 109,-62 43,-2 86,16 114,49 -18,41 -62,71 -108,72 -45,1 -90,-26 -111,-67l-4 8z"/>
   <path class="fil14" d="M730 6204c-50,15 -105,8 -149,-19 -44,-27 -76,-73 -85,-124 37,-3 74,-5 110,2 37,6 72,21 98,48 26,26 33,57 26,93z"/>
   <path class="fil14" d="M835 6169c-34,-28 -54,-72 -55,-116 0,-44 21,-87 54,-115 33,40 56,88 66,139 4,19 5,39 -1,58 -6,18 -21,35 -40,38l-24 -4z"/>
   <path class="fil15" d="M568 6674c3,-56 -24,-112 -69,-145 -45,-33 -107,-41 -159,-21 38,88 126,153 222,164l6 2z"/>
   <path class="fil15" d="M524 6697c-33,36 -31,94 -7,136 23,42 63,73 103,100 14,-46 12,-96 -5,-141 -17,-44 -48,-83 -89,-108l-2 13z"/>
   <path class="fil15" d="M682 6529c5,52 32,102 74,134 41,32 95,47 147,40 -12,-53 -33,-106 -74,-141 -40,-36 -104,-49 -149,-19l2 -14z"/>
   <path class="fil15" d="M681 6476c-8,-48 -55,-83 -104,-87 -48,-5 -95,16 -134,45 29,33 71,55 114,59 44,4 89,-9 124,-35l0 18z"/>
   <path class="fil15" d="M432 6882c-45,39 -57,108 -38,166 19,57 64,102 114,136 19,-57 31,-118 21,-177 -10,-59 -46,-116 -100,-140l3 15z"/>
   <path class="fil15" d="M673 6342c25,-36 66,-59 109,-62 43,-2 86,16 114,49 -18,41 -62,71 -108,72 -45,1 -90,-26 -111,-67l-4 8z"/>
   <path class="fil15" d="M730 6204c-50,15 -105,8 -149,-19 -44,-27 -76,-73 -85,-124 37,-3 74,-5 110,2 37,6 72,21 98,48 26,26 33,57 26,93z"/>
   <path class="fil15" d="M835 6169c-34,-28 -54,-72 -55,-116 0,-44 21,-87 54,-115 33,40 56,88 66,139 4,19 5,39 -1,58 -6,18 -21,35 -40,38l-24 -4z"/>
   <path class="fil14" d="M1018 6504c0,0 0,-1 0,-4 1,-3 1,-6 1,-11 1,-10 2,-24 2,-42 0,-36 0,-91 -25,-152 -13,-29 -32,-61 -61,-85 -28,-26 -68,-42 -111,-41 -21,0 -43,5 -62,15 -20,11 -37,27 -49,47 -24,39 -30,90 -28,139 2,50 9,99 4,147 -3,23 -9,47 -19,68 -9,21 -23,40 -41,53 -17,14 -38,22 -57,30 -19,7 -38,14 -54,24 -32,20 -56,48 -70,77 -15,29 -21,59 -21,84 0,26 5,48 11,66 12,34 26,50 25,50 0,0 -1,-1 -2,-3 -2,-2 -4,-4 -7,-8 -5,-9 -13,-21 -19,-38 -6,-18 -12,-40 -12,-67 0,-26 5,-56 20,-86 15,-30 39,-59 72,-80 33,-22 77,-27 110,-54 34,-26 51,-71 57,-117 5,-47 -2,-95 -4,-146 -2,-50 4,-101 29,-143 13,-21 30,-38 51,-49 21,-11 44,-16 66,-16 45,-1 86,17 115,43 30,26 49,58 62,88 12,31 18,61 21,87 2,26 2,49 2,67 -1,18 -2,33 -4,42 0,5 -1,8 -1,11 0,3 -1,4 -1,4z"/>
   <path class="fil15" d="M1018 6504c0,0 0,-1 0,-4 1,-3 1,-6 1,-11 1,-10 2,-24 2,-42 0,-36 0,-91 -25,-152 -13,-29 -32,-61 -61,-85 -28,-26 -68,-42 -111,-41 -21,0 -43,5 -62,15 -20,11 -37,27 -49,47 -24,39 -30,90 -28,139 2,50 9,99 4,147 -3,23 -9,47 -19,68 -9,21 -23,40 -41,53 -17,14 -38,22 -57,30 -19,7 -38,14 -54,24 -32,20 -56,48 -70,77 -15,29 -21,59 -21,84 0,26 5,48 11,66 12,34 26,50 25,50 0,0 -1,-1 -2,-3 -2,-2 -4,-4 -7,-8 -5,-9 -13,-21 -19,-38 -6,-18 -12,-40 -12,-67 0,-26 5,-56 20,-86 15,-30 39,-59 72,-80 33,-22 77,-27 110,-54 34,-26 51,-71 57,-117 5,-47 -2,-95 -4,-146 -2,-50 4,-101 29,-143 13,-21 30,-38 51,-49 21,-11 44,-16 66,-16 45,-1 86,17 115,43 30,26 49,58 62,88 12,31 18,61 21,87 2,26 2,49 2,67 -1,18 -2,33 -4,42 0,5 -1,8 -1,11 0,3 -1,4 -1,4z"/>
   <path class="fil14" d="M1990 6385c-2,-1 9,-17 10,-49 0,-16 -3,-36 -13,-57 -11,-20 -29,-40 -55,-52 -13,-6 -27,-11 -43,-12 -15,-1 -31,1 -48,6 -32,8 -65,27 -103,35 -19,3 -40,5 -60,-2 -21,-6 -38,-21 -49,-39 -24,-36 -30,-81 -58,-115 -14,-16 -33,-28 -53,-34 -20,-7 -41,-8 -62,-6 -41,3 -77,25 -102,53 -25,28 -41,62 -51,94 -9,33 -13,64 -11,93 2,58 12,104 17,136 3,16 5,28 6,37 1,4 2,7 2,10 0,2 0,3 0,3 0,0 0,-1 -1,-3 0,-2 -1,-6 -2,-9 -2,-9 -4,-22 -8,-37 -6,-32 -16,-78 -19,-137 -2,-29 1,-61 10,-95 10,-33 26,-67 52,-97 13,-14 29,-27 47,-37 18,-10 38,-16 60,-18 21,-2 43,-1 64,6 21,7 41,19 56,37 30,35 36,81 59,115 10,17 26,31 45,37 18,6 38,5 56,1 38,-7 70,-25 104,-34 17,-4 33,-7 50,-5 16,1 31,6 44,12 27,13 46,34 56,56 11,21 13,41 12,58 0,16 -4,29 -7,37 -3,8 -5,12 -5,12z"/>
   <path class="fil14" d="M1599 6143c36,22 87,24 119,7 33,-16 56,-52 61,-95 -37,-18 -77,-20 -111,-6 -33,14 -60,44 -73,82l4 12z"/>
   <path class="fil14" d="M1726 6257c-1,43 24,87 55,106 31,19 74,20 113,2 -4,-41 -23,-76 -52,-97 -30,-22 -69,-29 -109,-20l-7 9z"/>
   <path class="fil14" d="M1945 6232c38,18 89,15 119,-5 31,-20 50,-59 50,-102 -38,-13 -78,-11 -110,7 -32,17 -55,50 -64,89l5 11z"/>
   <path class="fil14" d="M1415 6067c-32,-28 -53,-76 -47,-113 6,-36 34,-69 73,-86 28,30 42,68 39,104 -4,36 -25,71 -57,95l-8 0z"/>
   <path class="fil14" d="M559 5910c0,0 0,-1 1,-3 1,-3 3,-5 4,-9 4,-7 11,-17 20,-30 18,-25 47,-61 95,-90 24,-14 53,-27 86,-31 32,-5 69,-3 104,11 35,12 69,37 89,72 20,36 27,78 39,118 6,20 14,40 25,56 11,17 26,30 42,42 16,12 33,22 48,35 15,12 28,26 38,42 22,30 34,64 40,96 7,33 7,64 5,91 -4,56 -15,100 -23,130 -4,15 -7,27 -10,34 -2,8 -3,12 -3,12 -1,0 0,-4 2,-12 2,-8 5,-20 8,-35 7,-30 18,-74 21,-129 2,-27 1,-58 -6,-89 -6,-32 -18,-65 -39,-95 -10,-14 -23,-28 -38,-40 -14,-12 -31,-22 -47,-34 -16,-12 -32,-26 -44,-44 -12,-17 -20,-37 -26,-58 -12,-41 -19,-82 -38,-116 -20,-34 -52,-58 -85,-70 -34,-13 -70,-16 -101,-11 -32,4 -61,16 -84,30 -48,28 -77,63 -96,87 -9,12 -16,22 -20,29 -5,7 -7,11 -7,11z"/>
   <path class="fil14" d="M1083 6057c-11,-11 -17,-4 -32,-1 -14,3 -28,11 -40,20 -51,41 -74,114 -54,177 47,3 95,-22 119,-63 25,-40 25,-94 2,-135l5 2z"/>
   <path class="fil14" d="M629 5850c-5,-14 -13,-10 -28,-14 -14,-4 -30,-2 -44,1 -64,15 -116,72 -126,137 42,22 95,20 135,-6 40,-26 63,-74 59,-121l4 3z"/>
   <path class="fil14" d="M1183 6336c-31,-35 -77,-55 -123,-53 -46,3 -90,27 -116,64 33,31 78,49 124,49 45,1 90,-20 124,-50l-9 -10z"/>
   <path class="fil14" d="M1145 6127c46,2 93,-19 122,-54 30,-35 43,-84 34,-130 -48,-11 -102,7 -135,44 -32,37 -43,92 -26,139l5 1z"/>
   <path class="fil14" d="M986 5882c43,17 93,13 133,-11 40,-23 68,-65 75,-111 -42,-26 -99,-28 -142,-3 -43,24 -71,72 -71,122l5 3z"/>
   <path class="fil14" d="M932 5802c-43,-17 -93,-12 -133,11 -40,23 -68,65 -75,111 42,26 99,28 142,4 43,-25 71,-73 71,-123l-5 -3z"/>
   <path class="fil14" d="M869 5759c43,-15 79,-50 95,-94 16,-43 11,-93 -13,-132 -50,6 -94,41 -112,87 -17,46 -8,102 24,139l6 0z"/>
   <path class="fil14" d="M705 5767c16,-44 11,-94 -13,-133 -24,-39 -67,-67 -113,-73 -25,43 -26,99 -1,142 25,42 75,70 124,68l3 -4z"/>
   <g>
    <polygon class="fil13" points="928,6969 979,7033 1607,7033 1650,6969 "/>
   </g>
   <g>
    <g>
     <path class="fil13" d="M1636 6969c0,2 -154,3 -345,3 -190,0 -344,-1 -344,-3 0,-2 154,-4 344,-4 191,0 345,2 345,4z"/>
    </g>
   </g>
   <g>
    <g>
     <path class="fil13" d="M1565 6730c1,1 -1,2 -4,6 -2,3 -6,8 -12,13 -12,11 -31,26 -56,39 -26,13 -60,23 -98,25 -20,1 -40,-1 -60,-5 -21,-4 -41,-12 -61,-20 -41,-17 -78,-37 -114,-48 -35,-12 -70,-16 -97,-10 -28,5 -48,18 -60,28 -12,10 -17,18 -17,18 0,0 1,-2 3,-6 2,-4 6,-9 12,-14 12,-11 32,-25 61,-31 28,-6 64,-4 100,8 37,11 74,31 114,48 20,9 40,16 60,20 20,4 40,6 58,5 38,-1 71,-11 96,-23 52,-24 74,-54 75,-53z"/>
    </g>
   </g>
   <g>
    <g>
     <path class="fil9" d="M1572 6681c0,1 -2,2 -5,5 -3,3 -7,8 -13,13 -13,10 -32,24 -59,36 -26,12 -60,22 -98,23 -19,1 -40,0 -60,-4 -21,-3 -42,-10 -62,-17 -42,-15 -80,-33 -116,-43 -36,-10 -71,-13 -99,-9 -28,5 -49,15 -62,24 -13,9 -19,16 -19,16 0,0 1,-2 4,-5 3,-4 7,-8 13,-13 13,-10 35,-22 63,-27 29,-5 65,-2 102,8 37,10 75,27 116,42 21,7 41,14 61,17 20,4 40,5 58,5 38,-1 71,-11 97,-22 53,-23 77,-50 79,-49z"/>
    </g>
   </g>
   <polygon class="fil12" points="1445,8510 110,8510 110,7616 1445,7616 "/>
   <polygon class="fil16" points="1445,8510 110,8510 110,7616 1445,7616 "/>
   <polygon class="fil12" points="1280,7799 1174,7799 1174,7618 1280,7618 "/>
   <polygon class="fil12" points="1268,8510 1162,8510 1162,8329 1268,8329 "/>
   <path class="fil9" d="M492 8508c-2,0 -4,-200 -4,-447 0,-247 2,-448 4,-448 2,0 3,201 3,448 0,247 -1,447 -3,447z"/>
   <path class="fil9" d="M965 8103c0,2 -192,4 -430,4 -237,0 -429,-2 -429,-4 0,-2 192,-4 429,-4 238,0 430,2 430,4z"/>
   <path class="fil14" d="M513 7614c0,0 10,-9 31,-23 21,-13 54,-32 100,-44 23,-6 49,-10 78,-11 7,0 14,-1 22,2 8,2 14,10 15,18 0,9 -4,17 -10,23 -6,6 -14,10 -22,13 -61,23 -138,35 -219,21l-3 0 0 -3c4,-45 15,-93 32,-139 9,-24 20,-47 32,-69 7,-12 15,-23 27,-31 11,-7 26,-11 40,-7 15,4 25,18 28,31 4,14 1,29 -4,42 -11,26 -27,49 -44,72 -34,45 -78,85 -128,115l-2 1 -1 0c-5,-1 -10,-3 -15,-4 -5,-2 -11,-4 -16,-5 -44,-17 -83,-45 -112,-79 -15,-18 -27,-37 -36,-57 -5,-10 -10,-21 -9,-33 1,-6 5,-13 11,-16 7,-2 13,-1 19,1 81,35 136,109 154,185l-6 2c-39,-96 -54,-191 -54,-275 1,-11 2,-21 6,-31 2,-5 5,-10 10,-13 4,-4 9,-6 15,-6 11,0 20,9 25,17 5,8 9,17 11,26 7,36 11,70 13,100 4,61 0,109 -4,142 -1,16 -3,28 -5,37 -1,4 -1,7 -2,9 0,2 0,3 0,3 -1,0 -1,-1 0,-3 0,-2 0,-6 1,-10 1,-8 3,-20 4,-37 4,-32 7,-80 2,-141 -2,-30 -7,-63 -14,-99 -2,-8 -5,-17 -10,-24 -5,-8 -12,-15 -21,-15 -9,0 -17,7 -20,16 -4,9 -5,19 -5,29 0,84 15,178 54,272l-7 2c-17,-74 -71,-146 -150,-179 -4,-2 -9,-3 -13,-1 -4,1 -6,5 -7,10 -1,9 4,19 8,29 10,20 21,38 36,55 28,34 66,61 109,77 5,2 10,3 15,5 5,1 10,3 15,4l-3 0c50,-30 92,-69 126,-113 17,-23 33,-46 43,-70 5,-12 7,-26 4,-38 -3,-12 -11,-23 -23,-26 -11,-4 -24,-1 -34,6 -11,7 -18,17 -25,28 -12,22 -23,45 -32,68 -17,46 -28,93 -32,137l-2 -3c80,14 156,3 217,-20 7,-3 14,-6 20,-11 5,-5 8,-12 8,-19 0,-7 -5,-13 -12,-15 -6,-2 -13,-2 -20,-2 -29,1 -54,5 -77,11 -46,11 -79,29 -100,42 -11,6 -19,12 -24,16 -5,3 -8,5 -8,5z"/>
   <polygon class="fil17" points="3165,8511 963,8511 963,7037 3165,7037 "/>
   <polygon class="fil18" points="3165,8511 2399,8511 2399,7037 3165,7037 "/>
   <polygon class="fil19" points="2893,7338 2718,7338 2718,7039 2893,7039 "/>
   <polygon class="fil19" points="2874,8511 2699,8511 2699,8212 2874,8212 "/>
   <path class="fil14" d="M1593 8508c-2,0 -4,-331 -4,-738 0,-408 2,-738 4,-738 2,0 4,330 4,738 0,407 -2,738 -4,738z"/>
   <g>
    <g>
     <path class="fil12" d="M2135 5100l234 -170 304 360c33,39 45,90 32,139l-103 389c-16,61 -72,101 -135,97 -75,-5 -130,-73 -120,-147l45 -351 -257 -317z"/>
    </g>
    <g>
     <g>
      <g>
       <path class="fil6" d="M2344 5358c-1,-4 -2,-8 -3,-12 -10,-33 -19,-80 -19,-132 0,-52 9,-98 19,-131 5,-16 9,-29 13,-38 4,-9 6,-13 6,-13 1,0 -1,5 -4,14 -4,9 -8,22 -12,38 -9,33 -18,79 -18,130 0,52 9,98 17,131 2,7 4,13 6,19l-5 -6z"/>
      </g>
     </g>
     <g>
      <g>
       <path class="fil6" d="M2365 5228c1,0 -17,22 -24,54 -7,33 0,60 -1,60 -1,0 -3,-6 -5,-17 -1,-11 -1,-27 2,-44 4,-16 11,-30 17,-40 6,-9 11,-14 11,-13z"/>
      </g>
     </g>
     <g>
      <g>
       <path class="fil6" d="M2287 5150c0,0 5,4 11,12 6,8 13,20 18,34 5,15 7,29 7,39 1,10 0,16 -1,16 -1,0 0,-25 -10,-53 -10,-28 -26,-47 -25,-48z"/>
      </g>
     </g>
     <g>
      <g>
       <path class="fil6" d="M2370 5107c1,1 -16,13 -28,36 -13,22 -14,44 -16,44 -1,0 -1,-23 12,-46 13,-24 32,-35 32,-34z"/>
      </g>
     </g>
     <g>
      <g>
       <path class="fil6" d="M2334 5036c1,0 8,16 7,37 0,21 -7,37 -8,36 -2,0 4,-16 4,-36 0,-20 -4,-36 -3,-37z"/>
      </g>
     </g>
    </g>
    <g>
     <g>
      <g>
       <path class="fil6" d="M2595 5839c-10,-33 -18,-79 -18,-130 0,-52 9,-98 19,-131 5,-16 9,-29 13,-38 4,-9 6,-13 6,-13 0,0 -1,5 -4,14 -4,9 -8,22 -12,38 -9,32 -18,79 -18,130 0,49 8,93 16,125 -1,2 -1,3 -2,5z"/>
      </g>
     </g>
     <g>
      <g>
       <path class="fil6" d="M2620 5722c1,1 -17,23 -24,55 -7,33 0,60 -2,60 0,0 -2,-6 -4,-17 -1,-11 -2,-27 2,-44 4,-16 11,-30 17,-40 6,-9 11,-14 11,-14z"/>
      </g>
     </g>
     <g>
      <g>
       <path class="fil6" d="M2542 5645c0,0 5,4 11,12 6,8 13,20 18,34 5,15 7,29 7,39 1,10 0,16 -1,16 -1,0 0,-25 -10,-53 -10,-28 -26,-47 -25,-48z"/>
      </g>
     </g>
     <g>
      <g>
       <path class="fil6" d="M2625 5602c1,1 -16,13 -28,36 -13,22 -14,44 -16,43 -1,1 -1,-22 12,-45 13,-24 32,-35 32,-34z"/>
      </g>
     </g>
     <g>
      <g>
       <path class="fil6" d="M2589 5531c1,0 8,16 7,37 0,21 -7,37 -8,36 -2,0 4,-16 4,-36 0,-20 -4,-36 -3,-37z"/>
      </g>
     </g>
    </g>
    <g>
     <g>
      <g>
       <path class="fil6" d="M2495 5694c0,0 -2,-5 -6,-14 -3,-8 -8,-21 -13,-38 -10,-32 -18,-79 -18,-131 0,-52 9,-99 19,-131 4,-16 9,-29 13,-38 3,-9 6,-14 6,-13 0,0 -1,5 -5,14 -3,8 -7,22 -12,38 -9,32 -17,79 -17,130 0,52 8,98 17,130 5,17 9,30 12,39 3,9 5,14 4,14z"/>
      </g>
     </g>
     <g>
      <g>
       <path class="fil6" d="M2501 5524c1,1 -17,23 -24,55 -7,33 0,60 -2,60 0,0 -3,-6 -4,-18 -2,-10 -2,-26 2,-43 4,-16 10,-30 16,-40 6,-9 11,-14 12,-14z"/>
      </g>
     </g>
     <g>
      <g>
       <path class="fil6" d="M2423 5447c0,-1 5,4 10,12 6,8 13,20 19,34 5,15 7,28 7,38 1,10 0,17 -1,17 -1,0 0,-25 -11,-53 -9,-29 -26,-47 -24,-48z"/>
      </g>
     </g>
     <g>
      <g>
       <path class="fil6" d="M2506 5403c1,1 -16,14 -29,37 -12,22 -14,44 -15,43 -1,1 -1,-22 12,-45 12,-24 32,-36 32,-35z"/>
      </g>
     </g>
    </g>
    <g>
     <g>
      <g>
       <path class="fil6" d="M2233 5220c-3,-7 -7,-17 -10,-29 -10,-32 -19,-79 -19,-131 0,-3 0,-7 1,-10l4 -3c0,4 0,8 0,13 0,52 8,98 17,130 4,15 8,27 11,35l-4 -5z"/>
      </g>
     </g>
     <g>
      <g>
       <path class="fil6" d="M2248 5073c1,1 -17,22 -24,55 -7,33 0,60 -2,60 0,0 -3,-7 -4,-18 -2,-11 -2,-26 2,-43 3,-17 10,-31 16,-40 6,-9 11,-14 12,-14z"/>
      </g>
     </g>
     <g>
      <g>
       <path class="fil6" d="M2202 5052c2,11 4,21 4,28 0,10 0,16 -1,16 -1,0 -1,-18 -7,-41l4 -3z"/>
      </g>
     </g>
    </g>
    <g>
     <g>
      <g>
       <path class="fil6" d="M2496 5081c13,26 25,60 33,97 11,51 13,99 10,133 -1,17 -3,30 -5,40 -2,9 -3,14 -3,14 0,0 0,-5 2,-15 1,-9 2,-23 3,-40 2,-33 0,-80 -11,-131 -9,-42 -24,-80 -37,-109l8 11z"/>
      </g>
     </g>
     <g>
      <g>
       <path class="fil6" d="M2484 5175c-1,-1 12,-26 12,-59 0,-18 -4,-34 -7,-44l5 6c3,10 6,23 6,38 0,17 -4,32 -7,43 -4,10 -8,16 -9,16z"/>
      </g>
     </g>
     <g>
      <g>
       <path class="fil6" d="M2577 5234c0,0 -5,-3 -13,-10 -7,-6 -17,-16 -25,-29 -8,-13 -13,-26 -16,-36 -2,-10 -3,-16 -2,-16 1,0 6,24 22,49 15,26 35,41 34,42z"/>
      </g>
     </g>
     <g>
      <g>
       <path class="fil6" d="M2505 5294c-1,-1 13,-17 20,-42 8,-24 5,-45 6,-45 1,-1 6,21 -1,47 -8,25 -24,41 -25,40z"/>
      </g>
     </g>
     <g>
      <g>
       <path class="fil6" d="M2556 5355c-1,1 -11,-14 -15,-34 -5,-21 -1,-38 0,-38 2,0 0,17 4,37 4,20 12,34 11,35z"/>
      </g>
     </g>
    </g>
    <g>
     <g>
      <g>
       <path class="fil6" d="M2606 5290c1,0 4,4 9,12 6,8 13,20 21,34 17,30 36,74 47,125 2,10 4,20 5,30l-2 11c-2,-13 -5,-27 -7,-40 -12,-51 -30,-94 -45,-124 -8,-15 -15,-27 -20,-35 -5,-8 -8,-12 -8,-13z"/>
      </g>
     </g>
     <g>
      <g>
       <path class="fil6" d="M2638 5457c-2,0 11,-25 11,-59 0,-33 -12,-58 -11,-58 0,-1 4,5 8,16 4,10 7,25 7,42 0,17 -3,33 -7,43 -4,10 -8,16 -8,16z"/>
      </g>
     </g>
     <g>
      <g>
       <path class="fil6" d="M2692 5476c-8,-12 -13,-25 -15,-35 -3,-10 -3,-16 -3,-16 2,0 6,22 20,46l-2 5z"/>
      </g>
     </g>
     <g>
      <g>
       <path class="fil6" d="M2658 5576c0,0 8,-10 15,-25l-4 14c-6,8 -10,12 -11,11zm25 -65c1,-13 0,-22 1,-22 1,0 2,3 2,9l-3 13z"/>
      </g>
     </g>
    </g>
    <g>
     <g>
      <g>
       <path class="fil6" d="M2366 5621c5,7 10,15 14,23 26,45 41,90 49,123 4,16 6,30 7,39 2,10 2,15 2,15 -1,0 -2,-5 -3,-14 -2,-10 -5,-23 -9,-39 -8,-33 -24,-77 -50,-122 -3,-7 -7,-13 -11,-19l1 -6z"/>
      </g>
     </g>
     <g>
      <g>
       <path class="fil6" d="M2442 5682c0,0 -6,-1 -15,-5 -9,-4 -21,-11 -33,-21 -11,-10 -20,-21 -25,-29 -1,-2 -2,-3 -3,-5l0 -4c6,8 16,22 31,35 23,20 46,28 45,29z"/>
      </g>
     </g>
     <g>
      <g>
       <path class="fil6" d="M2392 5761c-2,0 7,-20 6,-46 0,-25 -9,-45 -8,-45 1,-1 12,18 13,45 0,27 -11,47 -11,46z"/>
      </g>
     </g>
     <g>
      <g>
       <path class="fil6" d="M2458 5804c0,1 -14,-10 -24,-28 -11,-18 -12,-36 -11,-36 1,0 5,16 14,34 10,18 22,29 21,30z"/>
      </g>
     </g>
    </g>
    <g>
     <path class="fil6" d="M2580 5863c-14,-38 -43,-71 -81,-89 -48,-23 -109,-17 -153,12 1,67 53,124 121,129 45,3 87,-17 113,-52z"/>
    </g>
    <g>
     <path class="fil6" d="M2683 5513c-29,-19 -52,-48 -62,-81 -18,-54 -1,-118 39,-158l13 16c33,39 45,90 32,139l-22 84z"/>
    </g>
    <g>
     <g>
      <path class="fil20" d="M2135 5100l234 -170 304 360c33,39 45,90 32,139l-103 389c-16,61 -72,101 -135,97 -75,-5 -130,-73 -120,-147l45 -351 -257 -317z"/>
     </g>
    </g>
   </g>
   <g>
    <path class="fil12" d="M2256 4976l234 -170 304 360c33,38 44,90 32,138l-103 389c-16,61 -73,102 -135,97 -75,-5 -130,-72 -120,-146l45 -351 -257 -317z"/>
   </g>
   <g>
    <g>
     <g>
      <path class="fil6" d="M2465 5234c-1,-4 -2,-8 -4,-13 -9,-33 -18,-79 -18,-131 0,-52 9,-99 19,-131 5,-17 9,-30 13,-38 4,-9 6,-14 6,-14 0,0 -1,5 -4,14 -4,9 -8,22 -12,38 -9,33 -18,79 -18,131 0,51 8,98 17,130 2,7 4,14 6,19l-5 -5z"/>
     </g>
    </g>
    <g>
     <g>
      <path class="fil6" d="M2486 5103c1,1 -17,22 -24,55 -7,32 0,59 -2,60 0,0 -2,-7 -4,-18 -1,-11 -2,-26 2,-43 4,-17 10,-31 17,-40 6,-9 10,-14 11,-14z"/>
     </g>
    </g>
    <g>
     <g>
      <path class="fil6" d="M2408 5025c0,0 5,4 11,12 6,8 13,21 18,35 5,14 7,28 7,38 1,10 0,16 -1,16 -1,0 0,-24 -10,-53 -10,-28 -26,-47 -25,-48z"/>
     </g>
    </g>
    <g>
     <g>
      <path class="fil6" d="M2491 4982c1,1 -16,14 -28,36 -13,23 -14,44 -16,44 -1,0 -1,-22 12,-46 13,-23 32,-35 32,-34z"/>
     </g>
    </g>
    <g>
     <g>
      <path class="fil6" d="M2455 4912c1,-1 8,15 7,36 0,22 -8,37 -8,37 -2,-1 4,-16 4,-37 0,-20 -4,-36 -3,-36z"/>
     </g>
    </g>
   </g>
   <g>
    <g>
     <g>
      <path class="fil6" d="M2716 5714c-10,-32 -18,-78 -18,-129 0,-52 9,-99 19,-131 4,-17 9,-30 13,-38 4,-9 6,-14 6,-14 0,0 -1,5 -5,14 -3,9 -7,22 -11,38 -9,33 -18,79 -18,131 0,48 7,92 16,125 -1,1 -2,3 -2,4z"/>
     </g>
    </g>
    <g>
     <g>
      <path class="fil6" d="M2741 5598c1,1 -17,22 -24,55 -7,32 0,59 -2,60 0,0 -3,-7 -4,-18 -2,-11 -2,-26 2,-43 4,-17 10,-31 16,-40 6,-9 11,-14 12,-14z"/>
     </g>
    </g>
    <g>
     <g>
      <path class="fil6" d="M2663 5520c0,0 5,4 11,12 5,8 12,20 18,35 5,14 7,28 7,38 1,10 0,16 -1,16 -1,0 0,-25 -10,-53 -10,-28 -26,-47 -25,-48z"/>
     </g>
    </g>
    <g>
     <g>
      <path class="fil6" d="M2746 5477c1,1 -16,14 -29,36 -12,23 -13,44 -15,44 -1,0 -1,-22 12,-46 13,-23 32,-35 32,-34z"/>
     </g>
    </g>
    <g>
     <g>
      <path class="fil6" d="M2710 5407c1,-1 8,15 7,36 0,21 -8,37 -9,37 -1,-1 4,-17 5,-37 0,-20 -5,-36 -3,-36z"/>
     </g>
    </g>
   </g>
   <g>
    <g>
     <g>
      <path class="fil6" d="M2616 5569c0,0 -2,-4 -6,-13 -4,-9 -8,-22 -13,-38 -10,-33 -19,-79 -19,-131 1,-52 10,-99 19,-132 5,-16 10,-29 14,-38 3,-8 5,-13 6,-13 0,0 -2,5 -5,14 -3,9 -7,22 -12,38 -9,33 -17,79 -17,131 0,51 8,97 17,130 4,16 9,29 12,38 3,9 5,14 4,14z"/>
     </g>
    </g>
    <g>
     <g>
      <path class="fil6" d="M2622 5400c1,1 -17,22 -24,55 -7,32 0,59 -2,59 0,0 -3,-6 -4,-17 -2,-11 -2,-27 2,-43 3,-17 10,-31 16,-40 6,-10 11,-14 12,-14z"/>
     </g>
    </g>
    <g>
     <g>
      <path class="fil6" d="M2543 5322c1,0 5,4 11,12 6,8 13,20 18,35 5,14 8,28 8,38 0,10 -1,16 -1,16 -1,0 -1,-25 -11,-53 -9,-28 -26,-47 -25,-48z"/>
     </g>
    </g>
    <g>
     <g>
      <path class="fil6" d="M2627 5279c1,1 -17,14 -29,36 -12,23 -14,44 -15,44 -1,0 -2,-22 11,-46 13,-24 33,-35 33,-34z"/>
     </g>
    </g>
   </g>
   <g>
    <g>
     <g>
      <path class="fil6" d="M2354 5096c-3,-8 -7,-18 -10,-29 -10,-33 -19,-80 -19,-132 0,-3 0,-6 0,-10l5 -3c0,5 0,9 0,13 0,52 8,98 17,131 4,14 7,26 10,35l-3 -5z"/>
     </g>
    </g>
    <g>
     <g>
      <path class="fil6" d="M2368 4949c2,0 -16,22 -23,55 -8,32 -1,59 -2,59 -1,0 -3,-6 -4,-17 -2,-11 -2,-27 2,-43 3,-17 10,-31 16,-40 6,-10 11,-15 11,-14z"/>
     </g>
    </g>
    <g>
     <g>
      <path class="fil6" d="M2322 4928c3,10 5,20 5,28 0,10 -1,16 -1,16 -1,0 -1,-19 -7,-42l3 -2z"/>
     </g>
    </g>
   </g>
   <g>
    <g>
     <g>
      <path class="fil6" d="M2617 4956c13,27 25,60 33,98 11,51 12,98 10,132 -1,17 -3,31 -5,40 -2,9 -3,14 -3,14 0,0 0,-5 1,-14 2,-10 3,-23 4,-40 2,-34 0,-81 -11,-131 -9,-43 -24,-81 -38,-109l9 10z"/>
     </g>
    </g>
    <g>
     <g>
      <path class="fil6" d="M2605 5050c-1,0 12,-25 11,-58 1,-19 -3,-34 -6,-45l5 7c3,10 6,23 6,38 0,17 -4,32 -8,42 -4,11 -7,16 -8,16z"/>
     </g>
    </g>
    <g>
     <g>
      <path class="fil6" d="M2698 5109c0,1 -5,-2 -13,-9 -8,-7 -17,-17 -25,-30 -8,-13 -13,-26 -16,-36 -2,-9 -3,-15 -2,-16 1,0 6,24 22,50 15,25 35,40 34,41z"/>
     </g>
    </g>
    <g>
     <g>
      <path class="fil6" d="M2626 5169c-1,0 13,-16 20,-41 8,-25 4,-46 6,-46 1,0 6,21 -2,47 -7,26 -24,41 -24,40z"/>
     </g>
    </g>
    <g>
     <g>
      <path class="fil6" d="M2677 5230c-1,1 -11,-13 -15,-34 -5,-20 -1,-37 0,-37 2,0 0,17 4,36 4,20 12,35 11,35z"/>
     </g>
    </g>
   </g>
   <g>
    <g>
     <g>
      <path class="fil6" d="M2727 5166c1,0 4,4 9,12 6,7 13,19 21,34 17,30 35,73 47,124 2,11 4,21 5,31l-3 10c-1,-13 -4,-26 -7,-40 -11,-50 -29,-94 -45,-124 -7,-15 -14,-26 -19,-34 -5,-8 -8,-13 -8,-13z"/>
     </g>
    </g>
    <g>
     <g>
      <path class="fil6" d="M2759 5332c-2,0 11,-25 11,-58 0,-34 -13,-58 -11,-59 0,0 4,6 8,16 4,11 7,26 7,43 0,17 -3,32 -7,42 -4,11 -8,17 -8,16z"/>
     </g>
    </g>
    <g>
     <g>
      <path class="fil6" d="M2813 5352c-8,-13 -13,-26 -15,-35 -3,-10 -3,-16 -3,-16 1,-1 6,21 20,45l-2 6z"/>
     </g>
    </g>
    <g>
     <g>
      <path class="fil6" d="M2779 5452c-1,-1 7,-10 15,-26l-4 14c-6,8 -10,12 -11,12zm25 -66c1,-13 0,-22 1,-22 0,0 2,4 2,10l-3 12z"/>
     </g>
    </g>
   </g>
   <g>
    <g>
     <g>
      <path class="fil6" d="M2487 5496c5,8 9,15 14,23 26,45 41,90 49,123 4,17 6,30 7,40 1,9 2,15 2,15 -1,0 -2,-6 -3,-15 -2,-9 -5,-23 -9,-39 -9,-33 -24,-77 -50,-122 -3,-6 -7,-12 -11,-18l1 -7z"/>
     </g>
    </g>
    <g>
     <g>
      <path class="fil6" d="M2563 5558c0,0 -6,-1 -15,-5 -9,-4 -21,-11 -33,-21 -12,-10 -20,-21 -26,-30 -1,-1 -2,-3 -2,-4l0 -4c6,8 16,22 31,34 22,20 46,28 45,30z"/>
     </g>
    </g>
    <g>
     <g>
      <path class="fil6" d="M2512 5637c-1,-1 8,-20 7,-46 0,-26 -9,-45 -8,-46 1,0 12,19 13,46 0,27 -11,46 -12,46z"/>
     </g>
    </g>
    <g>
     <g>
      <path class="fil6" d="M2579 5680c0,0 -14,-10 -24,-29 -11,-18 -12,-35 -11,-35 1,-1 4,16 14,33 10,18 22,30 21,31z"/>
     </g>
    </g>
   </g>
   <g>
    <g>
     <path class="fil21" d="M2701 5739c-14,-39 -43,-72 -81,-89 -48,-23 -109,-18 -153,12 0,67 52,123 121,128 45,3 87,-17 113,-51z"/>
    </g>
   </g>
   <g>
    <g>
     <path class="fil21" d="M2804 5388c-29,-19 -52,-47 -62,-80 -18,-54 -2,-118 39,-158l13 16c33,38 44,90 32,138l-22 84z"/>
    </g>
   </g>
   <g>
    <g>
     <path class="fil12" d="M6570 5717l-480 -196c-26,-10 -38,-39 -28,-64l119 -291c10,-25 39,-37 64,-27l481 195c25,11 38,40 27,65l-118 291c-10,25 -39,37 -65,27z"/>
    </g>
    <g>
     <g>
      <path class="fil20" d="M6570 5717l-480 -196c-26,-10 -38,-39 -28,-64l119 -291c10,-25 39,-37 64,-27l481 195c25,11 38,40 27,65l-118 291c-10,25 -39,37 -65,27z"/>
     </g>
    </g>
    <g>
     <g>
      <path class="fil4" d="M6587 5360c0,0 1,-2 3,-7 3,-5 6,-12 10,-20 8,-18 21,-44 31,-77 9,-33 14,-76 -3,-119 -8,-21 -23,-40 -43,-55 -21,-14 -45,-25 -69,-35 -49,-19 -101,-29 -145,-16 -22,7 -40,19 -55,33 -14,14 -25,30 -34,45 -17,30 -25,58 -31,76 -3,9 -5,16 -7,22 -1,5 -2,7 -2,7 -1,0 0,-2 1,-7 1,-6 3,-13 6,-22 5,-19 12,-47 29,-78 8,-16 19,-32 34,-47 15,-15 34,-28 57,-35 23,-7 48,-8 74,-5 25,3 50,11 76,21 24,10 49,21 70,36 21,14 37,35 45,57 18,45 12,90 2,123 -11,34 -24,60 -33,77 -5,9 -9,15 -11,20 -3,4 -4,7 -5,6z"/>
     </g>
    </g>
    <g>
     <path class="fil12" d="M6499 5685l-481 -195c-25,-10 -37,-39 -27,-65l118 -290c10,-26 40,-38 65,-28l480 196c26,10 38,39 28,65l-118 290c-11,26 -40,38 -65,27z"/>
    </g>
    <g>
     <path class="fil22" d="M6057 5264c0,0 76,49 118,66 42,17 3,28 72,20 69,-8 75,-8 90,5 15,12 22,30 34,37 12,6 33,14 33,14 0,0 50,21 62,24 81,23 99,3 123,37 23,34 38,36 38,36l15 -38 -73 -30c0,0 -34,-28 -44,-34 -9,-6 -14,-21 -31,-13 -18,7 -34,7 -44,7 -10,-1 -47,-7 -47,-7l-31 -13 -7 -28 -29 -19 -16 -3 -39 -9 -54 -8 -56 -14 -32 -13 -48 -3 -34 -14z"/>
    </g>
    <g>
     <path class="fil22" d="M6045 5337l83 64 41 35c0,0 55,31 74,31 19,-1 48,11 48,11l28 23 39 16 43 6 38 1 33 13 44 18 41 17 25 10 6 17 14 -35 -115 -78 -86 -10 -71 -29 -33 -39 -57 -4 -54 -14 -59 -28 -61 -25 -21 0z"/>
    </g>
    <g>
     <polygon class="fil22" points="6011,5376 6048,5471 6080,5515 6180,5556 6118,5457 6069,5425 6030,5376 6017,5360 "/>
    </g>
    <g>
     <polygon class="fil22" points="6167,5466 6234,5529 6245,5582 6310,5609 6386,5639 6436,5618 6498,5611 6524,5612 6473,5591 6410,5594 6362,5588 6312,5545 6255,5522 6239,5496 6212,5477 "/>
    </g>
    <g>
     <path class="fil22" d="M6103 5203l96 16 79 -19 55 -14 60 38 70 33 87 17 55 6 43 36 19 67 2 17 -8 19 -49 -73c0,0 -34,-32 -39,-34 -5,-2 -29,-18 -40,-17 -11,2 -45,-1 -70,-10 -25,-8 -70,-20 -70,-20l-43 -25 -24 -10 -60 0 -34 13 -31 15 -51 -21 -73 -22 10 -27 16 15z"/>
    </g>
    <g>
     <polygon class="fil22" points="6211,5129 6101,5154 6093,5174 6156,5175 6216,5170 6255,5147 "/>
    </g>
    <g>
     <g>
      <path class="fil4" d="M6499 5685c0,0 6,4 19,3 7,0 15,-1 23,-6 8,-5 16,-13 21,-24 19,-47 46,-114 79,-197 8,-20 17,-42 26,-65 5,-11 10,-23 14,-34 3,-12 2,-25 -4,-35 -6,-12 -17,-19 -29,-24 -13,-5 -26,-10 -39,-15 -26,-11 -53,-21 -80,-32 -110,-45 -230,-94 -356,-145 -15,-6 -33,-4 -45,5 -6,5 -12,11 -15,18 -3,8 -6,16 -9,23 -13,31 -25,61 -37,91 -25,60 -48,117 -70,172 -3,7 -6,13 -6,20 -1,7 0,14 2,20 5,13 15,23 28,27 26,11 51,21 75,31 49,20 94,39 136,56 82,34 149,62 195,81 23,9 41,17 53,22 6,3 11,5 14,6 3,2 5,2 5,2 0,1 -2,0 -5,-1 -4,-1 -8,-3 -14,-5 -13,-5 -31,-12 -54,-22 -47,-18 -114,-45 -196,-78 -42,-17 -87,-35 -136,-55 -24,-10 -50,-20 -76,-31 -13,-5 -25,-16 -31,-31 -2,-7 -3,-15 -3,-23 1,-7 4,-15 6,-22 23,-54 46,-112 70,-172 12,-29 25,-60 37,-90 3,-8 6,-16 10,-24 3,-8 9,-15 17,-20 14,-11 34,-14 51,-7 127,52 247,101 357,145 27,12 54,22 80,33 13,5 25,11 38,16 13,4 26,13 32,26 7,12 8,27 4,39 -4,13 -9,24 -14,35 -9,23 -18,45 -26,65 -34,83 -62,149 -81,196 -5,12 -14,20 -23,25 -9,4 -17,6 -24,6 -13,0 -19,-5 -19,-5z"/>
     </g>
    </g>
   </g>
   <g>
    <g>
     <g>
      <g>
       <path class="fil4" d="M8170 6130c0,0 0,-3 1,-9 1,-6 2,-15 3,-26 0,-6 2,-13 2,-20 0,-7 0,-15 0,-24 0,-8 1,-17 0,-27 -1,-10 -2,-20 -3,-32 -5,-43 -15,-98 -41,-155 -26,-57 -66,-118 -126,-171 -7,-7 -15,-13 -22,-20 -8,-6 -17,-12 -25,-18 -17,-13 -36,-22 -54,-33 -39,-19 -81,-37 -126,-46 -23,-6 -47,-8 -70,-11 -12,-1 -24,0 -37,-1l-18 0c-6,0 -12,1 -18,1 -50,2 -100,14 -149,33 -98,36 -188,109 -248,205 -31,48 -52,103 -65,160 -13,57 -15,118 -7,177 1,8 3,16 4,23l0 2 -1 1c-55,78 -110,154 -163,227l-4 -5c84,-13 164,-26 242,-38l2 0 1 2c49,73 115,130 187,167 35,19 73,33 110,42 19,5 37,8 56,10 9,1 18,3 28,4 9,1 18,0 27,1 73,2 142,-12 201,-36 59,-24 109,-57 149,-92 10,-9 19,-18 28,-27 9,-9 17,-18 25,-27 8,-9 14,-19 21,-28 6,-9 13,-17 19,-27 21,-35 37,-68 47,-95 4,-14 8,-26 12,-37 3,-11 5,-20 7,-27 1,-8 3,-13 4,-17 1,-4 1,-6 1,-6 0,0 0,2 -1,6 -1,4 -2,9 -3,17 -2,7 -4,17 -6,27 -4,11 -8,23 -12,37 -10,28 -25,61 -47,97 -5,9 -12,18 -18,27 -7,9 -13,19 -21,28 -8,9 -16,19 -25,28 -9,9 -18,18 -28,27 -40,36 -91,70 -150,94 -60,24 -129,38 -203,37 -9,-1 -19,0 -28,-1 -9,-1 -18,-3 -28,-4 -19,-2 -38,-5 -57,-10 -37,-9 -75,-23 -111,-42 -73,-38 -140,-96 -189,-169l3 1c-78,12 -158,25 -241,38l-9 1 5 -7c53,-73 108,-149 164,-227l-1 3c-1,-8 -3,-16 -4,-24 -8,-60 -6,-121 7,-179 13,-58 35,-114 66,-163 61,-97 152,-171 252,-207 49,-19 100,-31 150,-33 6,-1 13,-1 19,-2 6,1 12,1 18,1 13,0 25,0 37,1 24,3 48,5 71,11 46,10 88,28 127,47 19,11 38,21 55,34 8,6 17,12 25,18 8,7 15,14 23,20 60,53 100,115 126,173 26,58 36,113 40,157 1,11 2,22 3,32 0,10 -1,19 -1,27 0,9 0,17 0,24 -1,7 -2,14 -3,20 -1,11 -2,20 -3,26 -1,6 -2,9 -2,9z"/>
      </g>
     </g>
    </g>
    <g>
     <g>
      <polygon class="fil5" points="7834,5848 7895,6310 7444,6310 7509,5848 "/>
     </g>
     <g>
      <g>
       <path class="fil1" d="M7546 5915c1,0 5,19 23,44 9,12 22,25 39,35 18,9 39,15 63,15 23,0 45,-5 62,-14 18,-9 30,-23 39,-35 17,-26 19,-45 21,-45 0,0 0,5 -2,14 -2,8 -7,20 -15,34 -8,13 -21,28 -40,38 -18,10 -41,15 -66,15 -24,0 -47,-6 -65,-17 -18,-10 -31,-24 -40,-37 -9,-13 -14,-25 -16,-34 -3,-8 -4,-13 -3,-13z"/>
      </g>
     </g>
    </g>
   </g>
   <g>
    <path class="fil13" d="M5351 7356c0,115 -94,209 -210,209 -116,0 -209,-94 -209,-209 0,-116 93,-210 209,-210 116,0 210,94 210,210z"/>
    <g>
     <g>
      <path class="fil23" d="M5088 7473c0,0 4,-4 12,-10 7,-7 19,-15 33,-26 28,-22 67,-52 110,-84 0,11 0,3 0,5l0 0 0 0 0 0 -1 0 -1 -1 -2 -2 -4 -3 -8 -6c-5,-4 -10,-7 -15,-11 -10,-8 -20,-15 -30,-22 -18,-15 -35,-27 -49,-38 -14,-11 -26,-20 -33,-27 -8,-6 -12,-10 -12,-10 1,0 5,3 13,8 10,7 21,15 35,24 15,11 32,24 50,37 10,7 20,15 30,22 5,4 10,8 16,12l8 6 4 3 2 1 1 1 0 0 1 1 0 0 0 0c0,2 0,-6 0,5 -44,33 -83,62 -112,83 -14,9 -25,17 -35,24 -8,6 -12,9 -13,8z"/>
     </g>
    </g>
    <g>
     <polygon class="fil0" points="5420,8131 5002,8131 5002,7713 5420,7713 "/>
    </g>
    <path class="fil13" d="M7332 7717c0,0 0,-3 0,-8 0,-6 -1,-14 -1,-24 0,-21 -1,-51 -1,-87 0,-18 0,-38 -1,-60 0,-11 0,-22 0,-33 0,-12 0,-23 1,-36 3,-25 16,-50 35,-69 19,-19 46,-32 75,-34 29,-2 57,7 79,24 22,16 37,39 44,63 4,12 4,24 4,36 0,11 0,22 0,33 0,22 0,42 0,60 -1,36 -1,66 -1,87 -1,10 -1,18 -1,24 0,5 -1,8 -1,8 0,0 0,-3 -1,-8 0,-6 0,-14 0,-24 -1,-21 -1,-51 -1,-87 -1,-18 -1,-38 -1,-60 -1,-21 2,-45 -5,-67 -6,-23 -20,-45 -41,-60 -21,-15 -47,-24 -74,-21 -28,1 -53,13 -71,31 -18,18 -30,42 -33,65 -2,11 -1,23 -1,35 0,11 0,22 -1,33 0,22 0,42 0,60 0,36 -1,66 -1,87 0,10 -1,18 -1,24 0,5 0,8 -1,8z"/>
    <path class="fil13" d="M7476 7717c0,0 -1,-3 -1,-8 0,-6 0,-14 -1,-24 0,-21 0,-51 -1,-87 0,-18 0,-38 0,-60 0,-11 0,-22 0,-33 0,-12 -1,-23 1,-36 3,-25 15,-50 34,-69 19,-19 47,-32 75,-34 29,-2 58,7 79,24 23,16 38,39 44,63 4,12 5,24 5,36 0,11 0,22 -1,33 0,22 0,42 0,60 0,36 -1,66 -1,87 0,10 -1,18 -1,24 0,5 0,8 -1,8 0,0 0,-3 0,-8 0,-6 -1,-14 -1,-24 0,-21 -1,-51 -1,-87 0,-18 0,-38 -1,-60 0,-21 3,-45 -4,-67 -7,-23 -21,-45 -42,-60 -20,-15 -47,-24 -74,-21 -27,1 -53,13 -71,31 -18,18 -30,42 -33,65 -1,11 -1,23 -1,35 0,11 0,22 0,33 0,22 0,42 -1,60 0,36 0,66 -1,87 0,10 0,18 0,24 -1,5 -1,8 -1,8z"/>
    <polygon class="fil13" points="7159,7656 7062,8509 7725,8509 7809,7656 "/>
    <polygon class="fil13" points="7809,7656 7947,7656 8064,8509 7725,8509 "/>
    <polygon class="fil16" points="7809,7656 7947,7656 8064,8509 7725,8509 "/>
    <polygon class="fil9" points="7132,7896 7769,8065 7736,8396 7093,8233 "/>
    <g>
     <g>
      <path class="fil4" d="M6126 6347c-28,84 -30,177 -4,261 16,52 42,104 34,158 -7,44 -35,82 -41,126 -11,90 74,175 51,262 -11,40 -44,72 -82,88 -38,16 -81,19 -122,15 -61,-5 -127,-28 -155,-82 -23,-44 -16,-96 -8,-144 35,-213 74,-427 161,-625l166 -59z"/>
     </g>
     <g>
      <g>
       <path class="fil4" d="M6154 7005c0,0 -3,1 -8,2 -4,1 -12,2 -21,2 -9,-1 -21,-3 -33,-9 -11,-7 -24,-17 -31,-33 -8,-15 -11,-34 -6,-54 2,-9 6,-19 13,-28 6,-8 14,-16 23,-22 17,-14 38,-25 55,-41 17,-17 27,-40 31,-65 3,-24 0,-49 -6,-72 -6,-23 -15,-44 -24,-64 -18,-40 -35,-76 -42,-109 -7,-33 -5,-61 1,-79 5,-18 11,-26 11,-26 1,0 -5,9 -10,27 -5,17 -6,45 1,77 7,32 24,68 43,108 9,20 18,41 25,65 6,23 9,48 5,74 -4,25 -15,50 -32,67 -18,17 -39,27 -56,41 -17,13 -31,29 -35,48 -4,19 -2,37 6,52 7,15 18,25 29,31 12,7 23,9 32,10 19,2 29,-3 29,-2z"/>
      </g>
     </g>
    </g>
    <g>
     <g>
      <path class="fil24" d="M5314 8375l-35 133 -358 -3c0,0 27,-63 222,-60l15 -70 156 0z"/>
     </g>
    </g>
    <g>
     <g>
      <g>
       <g>
        <path class="fil5" d="M6616 6380c-4,7 -94,473 -94,473l214 10 82 -401 -202 -82z"/>
       </g>
      </g>
      <g>
       <g>
        <polygon class="fil4" points="6522,6853 6497,6843 6590,6383 6619,6381 "/>
       </g>
      </g>
      <g>
       <g>
        <path class="fil4" d="M6702 6482c-1,6 3,12 9,12 7,1 12,-3 13,-9 1,-6 -4,-12 -10,-13 -6,0 -11,4 -12,10z"/>
       </g>
      </g>
     </g>
     <g>
      <g>
       <path class="fil24" d="M6746 6810l3 -62 -91 -37 35 -85c18,-39 65,-56 103,-35 12,7 25,14 37,20 26,14 45,39 52,68 12,49 22,153 21,149l-160 -18z"/>
      </g>
     </g>
    </g>
    <g>
     <g>
      <g>
       <path class="fil13" d="M6991 8365c0,0 376,104 391,109 23,8 19,91 -16,90 -17,0 -289,10 -324,8 -34,-2 -138,-43 -138,-43l87 -164z"/>
      </g>
     </g>
     <g>
      <g>
       <g>
        <path class="fil13" d="M7147 8509c2,0 5,-20 17,-41 12,-21 28,-33 27,-34 -1,-2 -20,9 -32,31 -13,22 -13,44 -12,44z"/>
       </g>
      </g>
     </g>
     <g>
      <g>
       <g>
        <path class="fil13" d="M7108 8491c2,0 6,-18 16,-37 10,-20 22,-34 20,-35 -1,-1 -15,11 -26,32 -10,21 -11,40 -10,40z"/>
       </g>
      </g>
     </g>
     <g>
      <g>
       <g>
        <path class="fil13" d="M7071 8481c2,0 1,-19 9,-40 8,-21 22,-34 21,-35 -1,-1 -18,10 -27,33 -9,22 -4,42 -3,42z"/>
       </g>
      </g>
     </g>
     <g>
      <g>
       <g>
        <path class="fil13" d="M7078 8432c1,1 4,-10 4,-28 0,-8 -1,-19 -4,-30 -1,-6 -3,-12 -5,-18 -1,-3 -3,-6 -6,-9 -4,-3 -10,-2 -13,1 -4,3 -5,7 -5,10 -1,4 -1,7 -1,10 0,7 1,13 3,19 2,11 7,21 11,28 9,16 17,23 17,23 1,-1 -5,-9 -13,-25 -4,-7 -7,-17 -10,-28 -1,-5 -2,-11 -2,-17 1,-6 1,-13 4,-16 2,-1 3,-1 5,0 2,1 3,4 4,7 2,5 4,11 6,16 3,11 4,21 5,30 1,17 -1,27 0,27z"/>
       </g>
      </g>
     </g>
     <g>
      <g>
       <g>
        <path class="fil13" d="M7078 8429c0,-1 -9,-4 -25,-4 -7,0 -16,0 -26,3 -5,1 -10,2 -16,6 -5,2 -10,9 -8,17 1,7 7,12 13,13 6,2 12,1 17,0 11,-2 19,-7 25,-12 12,-9 18,-17 17,-17 0,-1 -8,5 -20,13 -6,4 -14,9 -23,10 -5,1 -9,2 -14,0 -4,-1 -8,-4 -9,-9 -1,-4 1,-8 6,-10 4,-3 9,-4 13,-6 9,-2 18,-3 26,-4 14,-1 23,1 24,0z"/>
       </g>
      </g>
     </g>
     <g>
      <g>
       <g>
        <path class="fil13" d="M7205 8513c2,-1 0,-17 8,-34 7,-18 19,-28 18,-30 -1,-1 -16,8 -24,27 -8,20 -3,37 -2,37z"/>
       </g>
      </g>
     </g>
     <g>
      <g>
       <g>
        <path class="fil13" d="M6943 8530c0,0 5,3 14,7 10,3 24,9 42,13 36,9 87,14 144,13 56,0 107,-3 144,-4 17,-1 32,-2 43,-3 11,0 16,-1 16,-1 0,-1 -5,-1 -16,-1 -11,0 -26,0 -43,0 -38,1 -89,2 -144,3 -56,1 -107,-4 -143,-12 -36,-7 -57,-16 -57,-15z"/>
       </g>
      </g>
     </g>
     <g>
      <g>
       <g>
        <path class="fil13" d="M6932 8539c0,0 10,-6 28,-13 17,-8 43,-16 71,-12 28,4 48,23 62,37 13,13 20,22 21,22 1,-1 -6,-11 -18,-25 -7,-8 -15,-16 -25,-24 -11,-7 -24,-14 -39,-16 -30,-5 -57,5 -74,14 -17,9 -27,16 -26,17z"/>
       </g>
      </g>
     </g>
    </g>
    <g>
     <g>
      <g>
       <path class="fil13" d="M6591 8261c0,0 -355,233 -368,243 -19,14 3,83 36,71 16,-5 314,-88 346,-101 32,-12 119,-83 119,-83l-133 -130z"/>
      </g>
     </g>
     <g>
      <g>
       <g>
        <path class="fil13" d="M6486 8446c1,-1 -5,-21 -24,-39 -19,-17 -40,-21 -40,-20 -1,2 18,9 36,25 18,16 26,34 28,34z"/>
       </g>
      </g>
     </g>
     <g>
      <g>
       <g>
        <path class="fil13" d="M6518 8417c1,-1 -6,-19 -22,-35 -16,-17 -34,-24 -34,-23 -1,2 14,11 30,27 15,16 24,32 26,31z"/>
       </g>
      </g>
     </g>
     <g>
      <g>
       <g>
        <path class="fil13" d="M6550 8396c1,0 0,-20 -16,-39 -15,-19 -35,-25 -35,-23 -1,1 16,9 30,27 15,17 19,36 21,35z"/>
       </g>
      </g>
     </g>
     <g>
      <g>
       <g>
        <path class="fil13" d="M6529 8352c1,-1 -4,-10 -8,-27 -2,-8 -4,-18 -5,-29 0,-6 0,-12 1,-18 0,-3 1,-6 2,-7 1,-2 2,-2 5,-1 4,1 6,8 8,14 2,5 3,11 3,16 1,12 1,22 -1,30 -2,17 -6,27 -5,28 1,0 6,-10 10,-27 2,-9 3,-19 2,-31 0,-6 -1,-12 -3,-18 -1,-3 -2,-6 -4,-10 -1,-3 -4,-6 -8,-8 -4,-2 -10,-1 -12,3 -3,4 -3,8 -3,11 -1,6 -1,12 0,18 0,12 3,22 5,30 6,17 12,26 13,26z"/>
       </g>
      </g>
     </g>
     <g>
      <g>
       <g>
        <path class="fil13" d="M6528 8348c0,1 9,-3 23,-7 7,-1 16,-3 26,-3 4,0 10,0 14,1 5,1 8,4 9,8 0,4 -2,9 -6,11 -4,3 -9,4 -14,5 -9,1 -17,-1 -25,-3 -14,-4 -22,-8 -23,-7 0,1 8,6 22,11 7,3 17,5 27,5 5,-1 11,-2 16,-6 5,-3 10,-9 9,-16 0,-8 -8,-13 -13,-14 -6,-2 -12,-1 -17,-1 -10,1 -19,3 -26,5 -15,5 -22,10 -22,11z"/>
       </g>
      </g>
     </g>
     <g>
      <g>
       <g>
        <path class="fil13" d="M6304 8562c1,1 6,-3 9,-13 3,-10 1,-26 -7,-39 -3,-7 -8,-13 -12,-18 -4,-5 -8,-10 -12,-13 -4,-3 -8,-4 -11,-5 -3,0 -5,1 -5,1 0,1 7,1 13,8 4,3 7,7 11,13 3,5 7,11 11,17 7,13 9,26 8,35 -2,9 -6,14 -5,14z"/>
       </g>
      </g>
     </g>
     <g>
      <g>
       <g>
        <path class="fil13" d="M6432 8467c2,0 1,-18 -13,-34 -13,-17 -31,-20 -31,-19 -1,2 14,8 27,23 12,14 15,30 17,30z"/>
       </g>
      </g>
     </g>
     <g>
      <g>
       <g>
        <path class="fil13" d="M6687 8404c0,-1 -5,3 -15,11 -10,6 -25,16 -44,26 -19,11 -43,21 -70,31 -27,10 -57,20 -89,29 -64,19 -122,36 -164,48 -20,6 -37,11 -49,15 -12,4 -18,6 -18,7 0,0 6,-1 18,-4 13,-4 30,-8 50,-14 42,-11 101,-27 165,-46 32,-9 62,-19 89,-29 27,-11 51,-22 70,-33 19,-11 33,-21 43,-29 10,-7 15,-12 14,-12z"/>
       </g>
      </g>
     </g>
     <g>
      <g>
       <g>
        <path class="fil13" d="M6700 8409c1,-1 -11,-5 -30,-8 -18,-3 -47,-5 -74,9 -14,6 -25,17 -33,27 -7,11 -12,21 -16,30 -8,18 -11,29 -10,30 1,0 5,-11 14,-28 8,-17 22,-41 47,-54 26,-12 53,-12 72,-10 19,2 30,5 30,4z"/>
       </g>
      </g>
     </g>
    </g>
    <path class="fil13" d="M5738 6873l292 27 118 34c51,14 97,41 135,77l383 367 69 -570 191 17 -32 733c-28,89 -111,152 -208,152 -57,0 -112,-24 -153,-63l-273 -256 -8 366 189 153 -728 406c0,0 -39,-155 -21,-500 3,-64 -113,-256 -122,-313 -34,-217 -29,-535 -29,-535l197 -95z"/>
    <path class="fil13" d="M5559 6961c0,0 -148,55 -184,171 -31,102 -137,679 -137,679l-105 611 220 8 252 -1040 -46 -429z"/>
    <path class="fil4" d="M5549 7636c0,0 2,-5 4,-13 3,-8 6,-20 10,-34 8,-29 18,-70 28,-115 10,-45 18,-86 24,-116 3,-15 5,-27 6,-35 1,-9 2,-13 1,-13 0,0 -2,4 -4,12 -2,10 -4,22 -8,35 -6,31 -15,71 -25,116 -10,44 -19,84 -26,115 -3,13 -6,25 -8,35 -2,8 -3,12 -2,13z"/>
    <path class="fil4" d="M6892 6880c2,0 5,-13 6,-29 1,-16 1,-29 -1,-29 -1,-1 -4,12 -5,28 -2,16 -1,30 0,30z"/>
    <path class="fil4" d="M6837 6881c1,1 3,-13 4,-30 1,-17 0,-31 -1,-31 -2,0 -4,13 -5,30 -1,18 0,31 2,31z"/>
    <path class="fil4" d="M6781 6878c2,0 4,-15 5,-34 1,-19 1,-35 -1,-35 -2,0 -4,15 -5,34 -1,19 -1,35 1,35z"/>
    <path class="fil4" d="M6674 7466c1,-1 1,-23 -2,-51 -3,-28 -7,-50 -9,-50 -1,0 0,23 2,51 3,27 7,50 9,50z"/>
    <path class="fil4" d="M5316 8366c-1,0 -5,14 -8,31 -3,17 -4,31 -2,32 1,0 5,-14 8,-31 3,-17 4,-31 2,-32z"/>
    <path class="fil4" d="M5244 8366c-1,0 -5,12 -7,28 -3,16 -4,29 -2,29 2,0 5,-12 8,-28 2,-16 3,-28 1,-29z"/>
    <path class="fil4" d="M5176 8359c-2,0 -4,14 -7,32 -3,17 -6,31 -4,32 2,0 7,-14 10,-31 3,-18 3,-33 1,-33z"/>
    <path class="fil4" d="M5440 7033c0,1 15,0 39,5 24,5 56,17 84,41 28,24 44,55 52,77 8,23 10,39 11,39 0,0 0,-4 0,-11 -1,-7 -3,-17 -7,-29 -7,-24 -23,-55 -52,-81 -29,-25 -63,-37 -87,-41 -12,-2 -22,-2 -29,-2 -7,1 -11,1 -11,2z"/>
    <path class="fil4" d="M6229 7548c-2,-1 5,-18 12,-48 7,-29 13,-71 11,-117 -3,-46 -13,-86 -23,-115 -10,-28 -19,-45 -18,-45 1,-1 3,3 7,11 5,7 10,18 16,33 11,28 22,69 25,116 2,47 -4,89 -13,118 -4,15 -8,27 -12,35 -3,8 -5,12 -5,12z"/>
    <path class="fil4" d="M6247 7749c0,1 -4,1 -12,1 -8,0 -20,0 -35,-2 -29,-2 -69,-8 -111,-20 -43,-12 -80,-28 -106,-42 -13,-6 -23,-12 -30,-17 -7,-4 -11,-7 -10,-7 0,-1 16,8 42,20 26,12 63,27 106,39 42,12 81,19 110,22 28,4 46,5 46,6z"/>
    <path class="fil25" d="M5925 7648c23,20 58,23 89,22 31,0 61,-6 92,-6 30,1 63,9 83,32 7,7 12,16 12,25 1,9 -5,19 -14,22 -5,2 -11,1 -17,0 -86,-18 -179,-38 -245,-95z"/>
    <path class="fil25" d="M5644 7675c22,-7 26,-33 28,-57 9,-96 -10,-195 -54,-282 -11,64 -29,131 -41,196l67 143z"/>
    <path class="fil6" d="M6429 7140c0,0 -4,12 -18,28 -14,16 -41,37 -80,43 -19,3 -42,3 -64,-5 -22,-8 -42,-22 -62,-38 -19,-17 -39,-35 -63,-47 -12,-6 -26,-10 -39,-11 -14,0 -28,2 -42,6 -28,8 -52,23 -75,39 -23,15 -45,30 -69,41 -24,10 -48,15 -71,15 -23,0 -45,-4 -63,-10 -37,-13 -62,-34 -77,-50 -7,-8 -12,-14 -15,-19 -3,-5 -5,-8 -5,-8 1,0 7,10 22,26 15,14 40,34 77,46 35,11 83,15 129,-6 23,-10 45,-26 68,-41 23,-16 48,-32 77,-40 14,-4 29,-7 44,-6 15,1 29,6 42,12 25,13 45,31 65,47 19,17 39,31 59,38 21,8 42,9 61,6 38,-6 64,-25 79,-40 15,-15 19,-26 20,-26z"/>
    <path class="fil6" d="M6119 7725c0,2 -14,1 -27,11 -14,10 -16,24 -18,24 -1,0 -2,-4 0,-10 1,-6 6,-14 13,-20 8,-5 17,-8 23,-8 6,0 9,2 9,3z"/>
    <path class="fil6" d="M6238 7668c2,1 -3,21 -17,42 -15,21 -31,34 -32,33 -2,-2 12,-16 26,-37 13,-20 21,-39 23,-38z"/>
    <path class="fil6" d="M5753 7864c-1,2 -16,-2 -34,-2 -19,0 -34,4 -35,2 -1,-2 14,-9 35,-9 20,0 35,8 34,9z"/>
    <path class="fil26" d="M6659 7370c-24,30 -34,72 -25,109 2,7 5,13 11,15 5,2 10,-1 13,-5 4,-4 5,-9 6,-14 8,-36 8,-73 -2,-108l-3 3z"/>
    <g>
     <g>
      <g>
       <path class="fil4" d="M7033 8361c0,0 -872,-573 -908,-585 -36,-12 -122,-68 -209,-44 -86,23 -163,101 -202,214 -39,113 -42,366 -42,366 0,0 69,200 203,242 11,3 23,6 35,8 163,33 330,-42 421,-182l20 -29c0,0 571,209 580,206l102 -196z"/>
      </g>
     </g>
     <g>
      <g>
       <path class="fil4" d="M7331 7693c0,0 107,38 107,158 1,229 -463,482 -463,482l-618 -409 0 -43c0,0 795,-286 974,-188z"/>
      </g>
     </g>
     <g>
      <g>
       <g>
        <path class="fil5" d="M5954 8203c0,0 1,1 4,2 4,2 9,3 15,6 13,5 31,12 55,21 49,19 119,45 206,78 87,32 192,71 309,114 118,42 248,89 387,136l2 1 1 -2c22,-42 45,-86 69,-130 11,-23 23,-46 34,-67l2 -2 -3 -2c-262,-166 -496,-315 -666,-423 -84,-53 -152,-96 -200,-126 -23,-14 -41,-26 -54,-34 -6,-3 -11,-6 -14,-8 -3,-2 -5,-3 -5,-3 0,0 1,1 5,3 3,2 8,5 13,9 13,9 31,20 54,35 47,30 115,74 199,128 169,108 403,257 665,424l-1 -4c-11,21 -23,44 -35,67 -23,44 -46,88 -68,130l4 -2c-139,-47 -270,-93 -387,-135 -117,-43 -222,-81 -310,-113 -87,-32 -157,-58 -206,-76 -24,-9 -43,-15 -56,-20 -6,-2 -11,-4 -14,-5 -4,-1 -5,-2 -5,-2z"/>
       </g>
      </g>
     </g>
     <g>
      <g>
       <g>
        <path class="fil5" d="M6670 8130c0,1 6,-3 16,-11 10,-7 25,-18 43,-32 35,-27 83,-66 135,-110 52,-45 97,-86 129,-117 17,-15 30,-28 38,-37 9,-9 14,-14 14,-14 -1,-1 -6,4 -15,12 -10,9 -24,21 -40,36 -33,30 -79,71 -130,115 -52,45 -100,84 -134,112 -17,14 -31,25 -41,33 -10,8 -15,13 -15,13z"/>
       </g>
      </g>
     </g>
     <g>
      <g>
       <g>
        <path class="fil5" d="M7157 7779c0,-2 -28,-5 -60,5 -32,9 -54,27 -53,28 1,1 24,-13 55,-22 31,-9 58,-9 58,-11z"/>
       </g>
      </g>
     </g>
     <g>
      <g>
       <g>
        <path class="fil5" d="M7104 7742c-1,-1 -21,8 -37,28 -17,20 -21,41 -19,42 1,0 8,-19 24,-38 15,-19 33,-30 32,-32z"/>
       </g>
      </g>
     </g>
     <g>
      <g>
       <g>
        <path class="fil4" d="M7365 8469c0,-1 -7,-3 -16,4 -8,7 -15,21 -18,36 -2,16 2,31 6,40 4,9 9,14 10,13 1,0 -3,-6 -6,-15 -3,-9 -6,-22 -3,-37 2,-14 8,-27 14,-33 7,-7 13,-7 13,-8z"/>
       </g>
      </g>
     </g>
    </g>
    <g>
     <g>
      <g>
       <path class="fil4" d="M5576 6425c-17,-17 -41,-26 -65,-25 -23,1 -47,12 -62,30 -19,22 -26,50 -30,78 -4,27 -6,56 -16,82 -10,26 -31,50 -58,55 -21,4 -46,-2 -62,12 -13,12 -13,34 -3,49 9,16 26,25 42,32 7,3 15,8 15,15 0,9 -12,12 -21,16 -26,11 -33,48 -19,72 15,24 44,36 72,36 28,0 56,-9 82,-19 -10,11 -10,29 -1,40 9,12 25,17 40,15 14,-2 27,-10 38,-20 21,-19 32,-47 38,-75 5,-28 5,-57 5,-86 0,-102 7,-204 22,-306l-17 -1z"/>
      </g>
      <g>
       <g>
        <g>
         <g>
          <g>
           <g>
            <g>
             <g>
              <g>
               <g>
                <g>
                 <path class="fil24" d="M5872 6228c112,5 201,98 201,210 0,88 -1,183 -7,239 -13,131 -111,154 -111,154 0,0 3,81 7,158 4,74 -56,139 -135,145 -78,6 -144,-47 -150,-120l-26 -566c-6,-124 96,-226 221,-220z"/>
                </g>
               </g>
              </g>
             </g>
             <g>
              <g>
               <g>
                <g>
                 <g>
                  <path class="fil4" d="M6043 6496c1,8 -6,16 -15,17 -9,1 -17,-5 -18,-14 -1,-8 6,-16 15,-17 9,-1 17,5 18,14z"/>
                 </g>
                </g>
               </g>
              </g>
              <g>
               <g>
                <g>
                 <g>
                  <g>
                   <path class="fil4" d="M6043 6470c-2,2 -15,-7 -33,-5 -18,0 -31,10 -33,8 -1,-1 1,-5 6,-9 6,-5 15,-9 26,-10 11,0 21,3 27,7 6,4 8,8 7,9z"/>
                  </g>
                 </g>
                </g>
               </g>
              </g>
             </g>
             <g>
              <g>
               <g>
                <g>
                 <g>
                  <path class="fil4" d="M5856 6505c1,9 -6,17 -15,18 -9,1 -17,-5 -18,-14 -1,-9 6,-17 15,-18 9,-1 18,6 18,14z"/>
                 </g>
                </g>
               </g>
              </g>
              <g>
               <g>
                <g>
                 <g>
                  <g>
                   <path class="fil4" d="M5856 6487c-2,3 -15,-6 -33,-5 -18,1 -31,11 -33,9 -1,-1 1,-5 7,-9 5,-5 15,-10 26,-10 11,-1 20,3 26,7 6,4 8,7 7,8z"/>
                  </g>
                 </g>
                </g>
               </g>
              </g>
             </g>
             <g>
              <g>
               <g>
                <g>
                 <g>
                  <path class="fil4" d="M5929 6616c0,-1 11,-3 29,-7 4,0 9,-1 9,-5 1,-3 -1,-8 -4,-13 -5,-11 -10,-22 -15,-34 -22,-49 -38,-89 -36,-89 2,-1 21,37 43,86 5,12 10,23 15,34 2,5 5,11 3,18 -1,3 -4,6 -7,7 -3,1 -5,1 -8,2 -18,2 -29,2 -29,1z"/>
                 </g>
                </g>
               </g>
              </g>
             </g>
             <g>
              <g>
               <g>
                <g>
                 <path class="fil27" d="M5955 6831c0,0 -88,8 -178,-39 0,0 49,93 179,76l-1 -37z"/>
                </g>
               </g>
              </g>
             </g>
            </g>
           </g>
          </g>
         </g>
        </g>
        <g>
         <g>
          <g>
           <path class="fil4" d="M5797 6438c2,3 15,-3 31,-6 17,-4 31,-5 31,-9 1,-3 -14,-9 -34,-4 -19,4 -30,16 -28,19z"/>
          </g>
         </g>
        </g>
        <g>
         <g>
          <g>
           <path class="fil4" d="M5974 6405c1,4 16,3 34,4 17,0 32,1 33,-3 1,-3 -14,-11 -33,-11 -20,0 -35,7 -34,10z"/>
          </g>
         </g>
        </g>
       </g>
       <g>
        <g>
         <path class="fil4" d="M5684 6946c-1,-27 29,-144 41,-216 12,-71 -35,-83 -42,-125 -8,-43 13,-83 13,-83 69,25 96,-24 134,-53 39,-31 48,-69 64,-116 17,-48 36,-78 86,-82 0,0 49,24 67,76 15,45 27,219 27,219 7,-84 75,-119 56,-241 -8,-53 -52,-126 -119,-136 -20,-4 -57,-6 -57,-6 -41,-36 -60,-35 -99,-52 -84,-38 -184,29 -240,101 -42,56 -63,132 -75,203 -8,49 -8,99 -3,149 3,30 -1,67 -30,90 -41,32 -53,94 -24,176 29,83 -77,222 -77,222 0,0 51,-42 94,-64 43,-21 184,-62 184,-62z"/>
        </g>
       </g>
       <g>
        <g>
         <g>
          <g>
           <g>
            <path class="fil27" d="M5907 6659c-5,-6 -15,-10 -24,-8 -7,1 -13,5 -17,10 -3,6 -3,14 1,18 4,6 13,6 19,4 7,-3 13,-8 19,-13 1,-1 3,-3 4,-5 0,-2 0,-4 -1,-5l-1 -1z"/>
           </g>
          </g>
         </g>
        </g>
        <g>
         <g>
          <g>
           <g>
            <g>
             <path class="fil4" d="M5868 6637c2,-1 4,15 18,26 15,10 32,7 32,9 1,1 -3,4 -10,5 -8,0 -18,-1 -27,-8 -9,-6 -13,-15 -14,-22 -2,-6 0,-10 1,-10z"/>
            </g>
           </g>
          </g>
         </g>
        </g>
       </g>
      </g>
      <g>
       <g>
        <path class="fil4" d="M5301 6600c1,0 0,6 2,18 1,6 3,13 7,20 4,7 10,14 19,19 9,4 21,6 32,1 11,-4 19,-16 21,-29 4,-13 3,-28 3,-43 -1,-15 -2,-31 -2,-47 0,-32 4,-64 18,-89 12,-25 34,-43 55,-48 21,-5 39,-1 50,4 10,6 14,11 14,11 0,1 -5,-4 -15,-9 -10,-5 -28,-9 -48,-3 -20,5 -40,22 -53,47 -12,24 -17,55 -16,87 0,16 1,32 1,47 1,15 1,30 -3,44 -3,14 -11,26 -23,32 -13,5 -26,2 -35,-3 -10,-5 -16,-13 -20,-20 -4,-8 -6,-15 -7,-21 -1,-12 0,-18 0,-18z"/>
       </g>
      </g>
     </g>
     <g>
      <g>
       <path class="fil5" d="M5493 6882c0,0 -3,-2 -7,-7 -4,-5 -8,-14 -10,-26 -1,-12 0,-27 8,-43 7,-16 20,-31 36,-45 15,-15 33,-31 47,-52 14,-20 18,-48 16,-76 -2,-28 -8,-57 -7,-88 1,-16 4,-32 11,-47 7,-14 19,-27 34,-35 29,-17 62,-21 88,-36 27,-14 45,-40 58,-65 12,-25 22,-50 33,-73 12,-22 27,-42 44,-55 17,-13 37,-19 55,-18 17,1 31,8 40,16 9,8 14,17 16,23 1,3 1,5 1,7 1,1 1,2 1,2 -1,0 -1,-3 -3,-9 -2,-6 -7,-14 -16,-22 -9,-7 -23,-14 -39,-15 -17,-1 -36,6 -53,19 -17,13 -31,32 -42,54 -12,22 -21,48 -34,73 -13,25 -30,52 -59,67 -27,15 -60,20 -88,36 -14,8 -25,19 -32,33 -7,14 -10,30 -11,45 -1,30 6,60 7,88 2,28 -2,57 -17,78 -14,22 -33,37 -48,52 -16,14 -29,29 -36,44 -8,15 -10,30 -8,42 3,24 16,32 15,33z"/>
      </g>
     </g>
     <g>
      <g>
       <path class="fil6" d="M5527 6487c-1,1 -10,-18 -5,-42 5,-24 21,-38 22,-36 2,1 -10,16 -14,38 -5,22 0,40 -3,40z"/>
      </g>
     </g>
    </g>
    <g>
     <path class="fil4" d="M5573 6888c-10,69 5,141 40,201 13,21 29,41 50,55 21,13 48,18 71,10 24,-9 41,-34 37,-58 -5,-35 -48,-57 -48,-92 15,9 36,18 50,6 9,-8 10,-23 5,-34 -5,-11 -14,-21 -21,-30 -32,-40 -46,-94 -38,-144 2,-14 6,-57 6,-72 0,-14 -4,0 -14,-9 -11,-9 -27,-11 -40,-7 -14,4 -25,12 -35,22 -33,32 -51,78 -49,123l-14 29z"/>
    </g>
    <path class="fil6" d="M5604 7409c0,1 -5,-6 -18,-8 -13,-3 -33,-1 -52,14 -18,15 -29,43 -34,73 -6,31 -9,68 -33,99 -12,15 -29,25 -47,28 -18,4 -34,3 -50,4 -32,0 -58,14 -75,30 -17,17 -25,35 -29,47 -4,13 -4,21 -5,21 0,0 0,-2 0,-6 0,-3 1,-9 2,-15 4,-13 12,-32 29,-50 8,-9 19,-17 33,-23 13,-7 28,-10 44,-11 16,-1 33,0 50,-4 16,-3 32,-11 42,-25 11,-14 18,-31 22,-47 5,-17 7,-33 10,-49 6,-31 17,-60 38,-76 20,-15 42,-17 55,-13 7,2 12,5 14,7 3,2 4,4 4,4z"/>
    <path class="fil6" d="M5474 7952c0,0 -6,0 -16,2 -10,3 -24,8 -39,19 -14,11 -29,28 -41,50 -13,21 -23,46 -36,72 -13,25 -29,49 -50,65 -19,16 -43,23 -63,21 -19,-1 -34,-8 -42,-15 -4,-4 -7,-7 -8,-9 -2,-3 -2,-4 -2,-4 0,-1 4,4 12,10 8,7 22,13 41,13 18,1 40,-6 58,-21 19,-16 34,-38 47,-64 13,-25 24,-50 37,-72 13,-22 29,-39 44,-50 16,-11 31,-16 42,-17 5,-1 9,-1 12,-1 3,0 4,0 4,1z"/>
    <path class="fil6" d="M6247 7480c0,0 -3,1 -7,1 -5,1 -12,1 -21,-1 -18,-2 -42,-12 -71,-25 -14,-7 -30,-14 -48,-19 -18,-5 -37,-6 -58,-2 -40,8 -80,34 -115,67 -34,33 -65,69 -99,95 -33,27 -70,41 -102,46 -32,5 -58,2 -75,-1 -9,-2 -16,-4 -20,-5 -5,-2 -7,-3 -7,-3 0,-1 10,2 27,5 18,3 43,4 74,-1 31,-6 67,-20 99,-46 33,-26 63,-61 98,-95 36,-34 76,-60 119,-68 21,-4 42,-3 61,2 18,5 34,13 48,20 29,14 52,25 70,28 17,3 27,1 27,2z"/>
    <path class="fil6" d="M5354 7190c1,0 4,2 10,3 5,2 15,2 25,-2 10,-4 20,-12 29,-24 9,-12 18,-26 31,-39 25,-25 56,-38 79,-43 11,-2 20,-3 27,-3 6,0 10,0 10,1 0,1 -14,1 -36,7 -22,6 -51,19 -75,44 -12,11 -21,25 -31,37 -9,12 -21,22 -33,25 -11,4 -21,3 -27,0 -7,-3 -9,-6 -9,-6z"/>
    <path class="fil6" d="M6098 6916c0,1 -5,9 -16,19 -11,9 -30,20 -52,26 -22,6 -43,5 -58,2 -15,-3 -23,-7 -23,-8 1,-1 9,2 24,3 14,2 34,2 55,-4 21,-5 39,-15 51,-24 11,-8 18,-15 19,-14z"/>
    <g>
     <g>
      <path class="fil6" d="M6931 6895c1,1 -8,10 -24,22 -17,11 -42,23 -73,29 -30,6 -58,5 -78,0 -19,-4 -31,-9 -30,-10 0,-1 12,3 31,5 19,3 47,4 76,-2 29,-6 54,-17 71,-27 17,-10 26,-18 27,-17z"/>
     </g>
    </g>
    <g>
     <g>
      <path class="fil6" d="M6919 7050c1,1 -17,12 -35,42 -8,14 -17,33 -25,54 -8,21 -16,45 -27,69 -11,24 -25,45 -43,60 -18,15 -38,23 -55,26 -18,2 -32,-1 -41,-6 -5,-2 -8,-4 -10,-5 -2,-2 -3,-3 -3,-3 1,-1 5,3 14,6 9,3 22,5 39,3 16,-3 35,-11 52,-26 16,-14 30,-35 41,-58 11,-24 19,-48 27,-69 8,-21 17,-40 27,-54 10,-15 19,-25 27,-31 7,-6 12,-9 12,-8z"/>
     </g>
    </g>
    <path class="fil6" d="M6789 7691c-1,0 -3,-10 -6,-26 -3,-16 -8,-41 -20,-68 -6,-14 -14,-28 -26,-41 -12,-13 -27,-24 -45,-30 -19,-6 -40,-6 -61,-6 -22,0 -45,1 -68,-5 -24,-6 -43,-19 -60,-34 -16,-14 -30,-30 -44,-45 -26,-29 -55,-53 -84,-60 -29,-7 -54,1 -67,10 -14,10 -17,19 -18,19 0,0 1,-2 3,-6 3,-4 6,-10 13,-15 14,-10 40,-19 70,-13 31,7 61,31 88,61 14,14 28,30 44,44 16,14 35,27 57,32 43,11 89,-2 129,12 19,6 36,19 47,32 12,14 21,29 27,43 12,28 15,53 18,69 1,9 2,15 2,20 1,4 1,7 1,7z"/>
   </g>
  </g>
 </g>
</svg>
