<?xml version="1.0" encoding="UTF-8"?>
<!DOCTYPE svg PUBLIC "-//W3C//DTD SVG 1.1//EN" "http://www.w3.org/Graphics/SVG/1.1/DTD/svg11.dtd">
<!-- Creator: CorelDRAW X8 -->
<svg xmlns="http://www.w3.org/2000/svg" xml:space="preserve" width="10.4167in" height="6.94444in" version="1.1" style="shape-rendering:geometricPrecision; text-rendering:geometricPrecision; image-rendering:optimizeQuality; fill-rule:evenodd; clip-rule:evenodd"
viewBox="0 0 10417 6944"
 xmlns:xlink="http://www.w3.org/1999/xlink">
 <defs>
  <style type="text/css">
   <![CDATA[
    .fil3 {fill:#FEFEFE;fill-rule:nonzero}
    .fil4 {fill:#FBD2D3;fill-rule:nonzero}
    .fil10 {fill:#F79456;fill-rule:nonzero}
    .fil1 {fill:#F58959;fill-rule:nonzero}
    .fil0 {fill:#F26F41;fill-rule:nonzero}
    .fil6 {fill:#F0595A;fill-rule:nonzero}
    .fil8 {fill:#7D83BE;fill-rule:nonzero}
    .fil9 {fill:#3FC0C7;fill-rule:nonzero}
    .fil2 {fill:#1976D2;fill-rule:nonzero}
    .fil7 {fill:#1976D2;fill-rule:nonzero}
    .fil5 {fill:#6666AC;fill-rule:nonzero}
    .fil11 {fill:#F4F4F4;fill-rule:nonzero}
   ]]>
  </style>
 </defs>
 <g id="Layer_x0020_1">
  <metadata id="CorelCorpID_0Corel-Layer"/>
  <path class="fil0" d="M8239 6561l-5362 0 278 -3739c11,-146 132,-259 279,-259l4092 0c236,0 432,182 449,417l264 3581z"/>
  <path class="fil1" d="M8002 6561l-4887 0 108 -3726c4,-152 128,-272 279,-272l3946 0c244,0 443,194 450,437l104 3561z"/>
  <path class="fil1" d="M4878 2690l1270 0 -17 -518c0,-345 -281,-626 -627,-626 -345,0 -626,281 -626,626l0 518zm1434 159l-1593 0 0 -677c0,-433 352,-785 785,-785 433,0 785,352 786,784l22 678z"/>
  <path class="fil2" d="M6958 4831c0,791 -641,1431 -1431,1431 -791,0 -1432,-640 -1432,-1431 0,-791 641,-1432 1432,-1432 790,0 1431,641 1431,1432z"/>
  <path class="fil3" d="M4136 4497l-2 3c-25,106 -39,217 -39,331 0,13 0,26 1,39 10,15 23,26 40,32 118,38 213,82 239,183 25,101 114,448 182,553 67,105 244,146 292,-15 31,-105 25,-228 63,-291 38,-63 -97,-224 17,-257 114,-34 244,-93 173,-186 -72,-93 -165,-55 -198,-169 -34,-114 -60,-202 -30,-202 30,0 21,228 148,249 126,21 189,19 244,-93 12,-24 -160,-152 -135,-177 26,-25 80,55 182,63 101,9 198,46 206,118 9,72 97,246 144,241 120,-15 -30,-173 37,-228 68,-55 97,-89 178,-34 80,55 84,143 80,203 -5,59 45,201 92,247 46,47 131,136 207,98 76,-38 -8,-58 -72,-101 -63,-42 -126,-219 -80,-244 47,-26 135,-34 80,-110 -54,-76 -46,-101 -4,-122 42,-22 144,-69 135,-136 -8,-67 -93,-151 -50,-185 42,-34 105,59 151,0 47,-59 26,-215 0,-320 -25,-106 -232,-102 -202,-173 29,-72 4,-110 -101,-156 -106,-47 -224,-51 -325,0 -101,50 -135,12 -223,38 -89,25 -97,67 -140,88 -42,21 -101,38 -189,26 -89,-13 -140,-123 -245,-30 -105,93 -51,274 -232,249 -181,-26 -333,-17 -341,67 -9,85 42,160 -51,203 -93,42 -160,118 -232,198z"/>
  <path class="fil3" d="M4988 5416c27,-56 88,-147 109,-114 22,34 72,215 0,245 -71,29 -133,-82 -109,-131z"/>
  <path class="fil3" d="M6183 5540c57,-57 110,-51 173,-127 64,-76 93,-147 152,-122 59,25 122,80 186,42 54,-32 125,-2 132,100 -87,186 -212,351 -366,483 -8,-5 -15,-13 -19,-22 -30,-68 -21,-139 -59,-169 -38,-29 -161,51 -199,34 -38,-17 -58,-162 0,-219z"/>
  <path class="fil3" d="M6219 4999c10,-15 63,-123 118,-89 55,34 55,173 0,194 -55,21 -152,-55 -118,-105z"/>
  <path class="fil3" d="M6624 5108c48,-4 176,17 196,102 19,84 -6,75 -36,54 -29,-21 -225,-152 -160,-156z"/>
  <path class="fil4" d="M5292 569c0,151 -123,273 -273,273 -151,0 -273,-122 -273,-273 0,-151 122,-273 273,-273 150,0 273,122 273,273z"/>
  <path class="fil3" d="M4994 680c-8,0 -15,-3 -22,-8l-99 -79c-15,-13 -18,-35 -6,-50 13,-15 35,-18 50,-6l78 63 153 -109c15,-11 38,-7 49,9 11,16 8,38 -8,49l-174 124c-6,5 -14,7 -21,7z"/>
  <path class="fil5" d="M4608 2097c0,178 -144,322 -322,322 -178,0 -323,-144 -323,-322 0,-178 145,-322 323,-322 178,0 322,144 322,322z"/>
  <polygon class="fil3" points="4286,1870 4354,2009 4508,2031 4397,2140 4423,2292 4286,2220 4149,2292 4175,2140 4064,2031 4217,2009 "/>
  <path class="fil6" d="M5912 2059c0,218 -176,394 -394,394 -219,0 -395,-176 -395,-394 0,-218 176,-395 395,-395 218,0 394,177 394,395z"/>
  <path class="fil3" d="M5691 1916c-59,-32 -137,8 -173,63 -36,-55 -118,-95 -177,-63 -62,33 -77,98 -44,161 34,63 221,215 221,213 0,2 187,-150 221,-213 33,-63 14,-128 -48,-161z"/>
  <path class="fil7" d="M6556 1362c0,158 -128,286 -286,286 -158,0 -286,-128 -286,-286 0,-158 128,-286 286,-286 158,0 286,128 286,286z"/>
  <polygon class="fil3" points="6238,1521 6303,1521 6303,1204 6238,1204 "/>
  <polygon class="fil3" points="6112,1395 6429,1395 6429,1330 6112,1330 "/>
  <path class="fil6" d="M5673 379c0,75 -61,136 -136,136 -76,0 -137,-61 -137,-136 0,-76 61,-137 137,-137 75,0 136,61 136,137z"/>
  <polygon class="fil3" points="5521,454 5552,454 5552,303 5521,303 "/>
  <polygon class="fil3" points="5461,394 5612,394 5612,363 5461,363 "/>
  <path class="fil8" d="M7199 1338c0,130 -106,236 -236,236 -131,0 -236,-106 -236,-236 0,-131 105,-237 236,-237 130,0 236,106 236,237z"/>
  <path class="fil3" d="M6873 1388l186 0 0 -94 -186 0 0 94zm222 71l-258 0c-19,0 -35,-16 -35,-35l0 -165c0,-19 16,-35 35,-35l258 0c19,0 35,16 35,35l0 165c0,19 -16,35 -35,35z"/>
  <path class="fil3" d="M7006 1337c0,20 -17,37 -37,37 -20,0 -36,-17 -36,-37 0,-20 16,-36 36,-36 20,0 37,16 37,36z"/>
  <path class="fil3" d="M7035 1293c-24,0 -44,-19 -44,-44l0 -19c0,-25 20,-45 44,-45 25,0 44,20 44,45l0 19c0,25 -19,44 -44,44z"/>
  <path class="fil9" d="M5951 957c0,190 -154,343 -344,343 -190,0 -344,-153 -344,-343 0,-190 154,-344 344,-344 190,0 344,154 344,344z"/>
  <path class="fil3" d="M5859 978c0,0 -95,140 -260,131 -151,-8 -233,-131 -233,-131 0,0 68,-153 233,-158 192,-5 260,158 260,158z"/>
  <path class="fil9" d="M5721 967c0,57 -47,104 -104,104 -57,0 -104,-47 -104,-104 0,-57 47,-104 104,-104 57,0 104,47 104,104z"/>
  <path class="fil10" d="M6227 436c0,120 -98,218 -218,218 -120,0 -217,-98 -217,-218 0,-119 95,-215 214,-217l7 0c118,2 214,98 214,217z"/>
  <path class="fil3" d="M6115 339c11,4 18,26 10,61 -8,36 -20,116 -20,116l-29 0c0,0 14,-86 -14,-94 -27,-8 -45,94 -108,94 -63,0 -102,2 -104,-16 -2,-17 84,-33 120,-78 52,-67 127,-88 145,-83z"/>
  <path class="fil7" d="M5025 1234c0,262 -212,474 -474,474 -262,0 -475,-212 -475,-474 0,-263 213,-475 475,-475 262,0 474,212 474,475z"/>
  <path class="fil3" d="M4322 1361l445 0 0 -259 -445 0 0 259zm480 71l-515 0c-20,0 -36,-16 -36,-36l0 -329c0,-20 16,-36 36,-36l515 0c20,0 35,16 35,36l0 329c0,20 -15,36 -35,36z"/>
  <path class="fil3" d="M4552 1301c-8,0 -15,-3 -21,-7l-265 -199 42 -57 243 183 229 -182 44 55 -250 199c-7,5 -14,8 -22,8z"/>
  <path class="fil6" d="M6928 749c3,176 -137,321 -313,323 -176,3 -320,-137 -323,-312 -3,-176 137,-321 313,-323 175,-3 320,137 323,312z"/>
  <path class="fil3" d="M6610 588l-3 0c-44,1 -86,19 -117,51 -30,32 -47,74 -46,118 1,90 76,164 166,164l3 0c44,-1 85,-19 116,-51 31,-32 48,-74 47,-118 -1,-90 -76,-164 -166,-164zm0 404c-129,0 -235,-105 -237,-234 -1,-63 23,-123 67,-168 44,-46 103,-72 166,-73l4 0c129,0 235,105 237,234 1,63 -23,123 -67,168 -44,46 -103,71 -166,72l-4 1z"/>
  <path class="fil3" d="M6610 790c-5,0 -11,-1 -16,-4l-77 -37c-17,-9 -25,-30 -16,-47 8,-18 30,-25 47,-17l61 30 90 -52c17,-10 38,-4 48,13 10,17 4,38 -13,48l-106 61c-6,3 -12,5 -18,5z"/>
  <path class="fil10" d="M5271 1257c0,50 -40,91 -90,91 -50,0 -91,-41 -91,-91 0,-50 41,-90 91,-90 50,0 90,40 90,90z"/>
  <path class="fil6" d="M4662 596c0,37 -30,66 -67,66 -36,0 -66,-29 -66,-66 0,-37 30,-67 66,-67 37,0 67,30 67,67z"/>
  <path class="fil6" d="M4138 1668c0,46 -38,83 -83,83 -46,0 -83,-37 -83,-83 0,-46 37,-83 83,-83 45,0 83,37 83,83z"/>
  <path class="fil4" d="M6206 907c0,51 -41,92 -91,92 -51,0 -92,-41 -92,-92 0,-51 41,-92 92,-92 50,0 91,41 91,92z"/>
  <path class="fil10" d="M7144 2057c0,219 -178,397 -397,397 -220,0 -397,-178 -397,-397 0,-219 177,-397 397,-397 219,0 397,178 397,397z"/>
  <path class="fil3" d="M6571 2049c-47,0 -86,39 -86,87 0,47 39,86 86,86 48,0 87,-39 87,-86 0,-48 -39,-87 -87,-87zm0 244c-86,0 -157,-71 -157,-157 0,-87 71,-158 157,-158 87,0 158,71 158,158 0,86 -71,157 -158,157z"/>
  <path class="fil3" d="M6909 2056c-47,0 -86,38 -86,86 0,48 39,87 86,87 48,0 87,-39 87,-87 0,-48 -39,-86 -87,-86zm0 243c-86,0 -157,-70 -157,-157 0,-87 71,-157 157,-157 87,0 158,70 158,157 0,87 -71,157 -158,157z"/>
  <path class="fil3" d="M6641 2094l79 1 -45 -62 -34 61zm150 72l0 0 -210 -2c-12,0 -24,-7 -30,-18 -6,-10 -6,-24 0,-35l89 -160c5,-10 16,-17 28,-18 12,-1 24,5 31,14l121 163c8,11 9,25 3,37 -6,12 -18,19 -32,19z"/>
  <path class="fil3" d="M6727 1925l-11 -2 -91 -30c-19,-6 -29,-26 -23,-44 6,-19 26,-29 45,-23l91 30c19,6 29,26 23,44 -5,15 -19,25 -34,25z"/>
  <path class="fil3" d="M6909 2166l-4 0c-19,-2 -33,-19 -31,-39l30 -271c2,-19 20,-33 39,-31 20,2 33,19 31,39l-30 271c-2,18 -17,31 -35,31z"/>
  <path class="fil3" d="M7021 1941c-7,0 -13,-2 -20,-6l-144 -99c-16,-11 -20,-33 -9,-49 11,-16 33,-20 49,-9l144 99c16,11 21,33 10,49 -7,10 -18,15 -30,15z"/>
  <polygon class="fil3" points="6791,2166 6909,2166 6909,2096 6791,2096 "/>
  <path class="fil3" d="M6673 2009c-20,0 -35,-16 -35,-36l0 -91c0,-20 15,-35 35,-35 19,0 35,15 35,35l0 91c0,20 -16,36 -35,36z"/>
 </g>
 <g id="Background_x0020_Simple" visibility="hidden">
  <metadata id="CorelCorpID_1Corel-Layer"/>
  <path class="fil11" d="M8862 2602c-87,-572 -386,-1121 -860,-1454 -473,-333 -1124,-423 -1647,-177 -845,398 -1197,1521 -2076,1834 -578,205 -1246,1 -1815,228 -453,181 -778,642 -797,1128 -3,69 4,149 19,238 153,909 946,1572 1868,1578l2223 15c579,145 1211,2 1711,-325 500,-326 874,-824 1114,-1371 233,-530 347,-1121 260,-1694z"/>
 </g>
</svg>
